<svg width="80" height="80" viewBox="0 0 80 80" fill="none" xmlns="http://www.w3.org/2000/svg">
<g clip-path="url(#clip0_149_14101)">
<path d="M78.5938 54.3662H65.0458V48.6521C65.0458 47.6819 64.3052 46.8816 63.3597 46.7866L63.3594 1.5332C63.3594 0.842891 62.7997 0.283203 62.1094 0.283203C61.4191 0.283203 60.8594 0.842891 60.8594 1.5332V7.62852H53.0191V1.5332C53.0191 0.842891 52.4594 0.283203 51.7691 0.283203C51.0787 0.283203 50.5191 0.842891 50.5191 1.5332L50.5192 46.7866C49.5737 46.8816 48.8331 47.6819 48.8331 48.6521V54.3662H29.9167C29.2264 54.3662 28.6667 54.9259 28.6667 55.6162V62.9305C28.6667 63.6209 29.2264 64.1805 29.9167 64.1805H34.0881V68.6871H32.0908C31.7555 66.7171 30.0392 65.1024 27.7614 64.6332C27.6645 64.4854 27.5588 64.3419 27.4442 64.2034L27.8555 40.9649C28.0386 38.8477 26.6889 36.9212 24.6284 36.3709C24.5622 36.3532 24.4945 36.3409 24.4261 36.3343L18.4789 35.7593L20.8906 26.7587C21.2031 25.5921 20.5084 24.3888 19.3419 24.0763L17.4503 23.5695C16.3152 23.2655 15.1495 23.9154 14.7983 25.0237L1.72969 21.522C1.35469 21.4216 0.953594 21.501 0.645313 21.7377C0.337188 21.9741 0.15625 22.3405 0.15625 22.7291V38.4216C0.15625 38.9874 0.53625 39.4826 1.08281 39.6291L10.2281 42.0796C10.1102 42.6138 10.1925 43.1657 10.4688 43.644C10.7616 44.1513 11.2336 44.5138 11.7977 44.6651L13.6894 45.172C13.8784 45.2226 14.0686 45.2468 14.2556 45.2468C15.2225 45.2468 16.1098 44.6004 16.3717 43.623L16.4755 43.2362L19.0494 43.9259L18.7273 63.5016C18.423 63.7526 18.1514 64.0319 17.9189 64.333C15.333 64.674 13.3448 66.4613 13.0902 68.687H12.0328V64.1804H16.2042C16.8945 64.1804 17.4542 63.6207 17.4542 62.9304V55.616C17.4542 54.9257 16.8945 54.366 16.2042 54.366H1.40625C0.715937 54.366 0.15625 54.9257 0.15625 55.616V78.4668C0.15625 79.1571 0.715937 79.7168 1.40625 79.7168H78.5938C79.2841 79.7168 79.8438 79.1571 79.8438 78.4668V55.6162C79.8438 54.9259 79.2839 54.3662 78.5938 54.3662ZM53.0192 19.9159H58.9705L53.0192 25.5487V19.9159ZM53.0192 29.703H58.9703L53.0192 35.3359V29.703ZM60.8595 36.9902H54.9081L60.8595 31.3571V36.9902ZM53.0194 39.4902H58.9703L53.0194 45.1229V39.4902ZM60.8595 41.1441V46.7771H54.9083L60.8595 41.1441ZM60.8595 27.203H54.9081L60.8595 21.5699V27.203ZM60.8595 17.4159H54.908L60.8595 11.7827V17.4159ZM67.9672 64.1807V68.6873H45.9117V64.1807H67.9672ZM51.3333 61.6807V49.2771H62.5458V61.6807H51.3333ZM58.9705 10.1285L53.0192 15.7613V10.1285H58.9705ZM2.65625 24.3582L14.1464 27.4371L10.8705 39.6635L2.65625 37.4626V24.3582ZM14.0372 42.6769L12.7441 42.3304L17.1025 26.0643L18.3958 26.4109L14.0372 42.6769ZM18.6666 66.7771C19.1048 66.7621 19.5031 66.5188 19.7164 66.1355C19.915 65.7788 20.2322 65.456 20.6342 65.2024C20.9908 64.9774 21.21 64.5874 21.2169 64.1659L21.5652 42.9916C21.5747 42.4182 21.1927 41.9121 20.6388 41.7637L17.1225 40.8215L17.8228 38.2076L24.0698 38.8116C24.9102 39.079 25.4498 39.8898 25.3625 40.7738C25.3592 40.8073 25.3572 40.841 25.3566 40.8746L24.9356 64.6596C24.9295 65.0065 25.0678 65.3401 25.3173 65.581C25.5413 65.7971 25.7123 66.0348 25.8264 66.2879C26.0095 66.6945 26.3955 66.9726 26.8389 67.018C28.1127 67.148 29.135 67.8201 29.5027 68.6874H15.6328C15.9344 67.6457 17.1794 66.8279 18.6666 66.7771ZM77.3438 77.2169H2.65625V56.8662H14.9542V61.6805H11.4078C10.3739 61.6805 9.53281 62.5216 9.53281 63.5555V69.3121C9.53281 70.346 10.3739 71.1871 11.4078 71.1871H34.7131C35.747 71.1871 36.5881 70.346 36.5881 69.3121V63.5555C36.5881 62.5216 35.747 61.6805 34.7131 61.6805H31.1667V56.8662H48.8331V61.6805H45.2867C44.2528 61.6805 43.4117 62.5216 43.4117 63.5555V69.3121C43.4117 70.346 44.2528 71.1871 45.2867 71.1871H68.5922C69.6261 71.1871 70.4672 70.346 70.4672 69.3121V63.5555C70.4672 62.5216 69.6261 61.6805 68.5922 61.6805H65.0458V56.8662H77.3438V77.2169Z" fill="#865004"/>
</g>
<defs>
<clipPath id="clip0_149_14101">
<rect width="80" height="80" fill="white"/>
</clipPath>
</defs>
</svg>
