<svg width="30" height="30" viewBox="0 0 30 30" fill="none" xmlns="http://www.w3.org/2000/svg">
<path d="M5.00098 25C4.31348 25 3.72473 24.755 3.23473 24.265C2.74473 23.775 2.50015 23.1867 2.50098 22.5V7.5C2.50098 6.8125 2.74598 6.22375 3.23598 5.73375C3.72598 5.24375 4.31431 4.99917 5.00098 5H25.001C25.6885 5 26.2772 5.245 26.7672 5.735C27.2572 6.225 27.5018 6.81334 27.501 7.5V22.5C27.501 23.1875 27.256 23.7763 26.766 24.2663C26.276 24.7563 25.6876 25.0008 25.001 25H5.00098ZM15.001 16.0313C15.1051 16.0313 15.2147 16.0154 15.3297 15.9838C15.4447 15.9521 15.5539 15.9054 15.6572 15.8438L24.501 10.3125C24.6676 10.2083 24.7926 10.0779 24.876 9.92125C24.9593 9.76459 25.001 9.59292 25.001 9.40625C25.001 8.98959 24.8239 8.67709 24.4697 8.46875C24.1156 8.26042 23.751 8.27084 23.376 8.5L15.001 13.75L6.62598 8.5C6.25098 8.27084 5.8864 8.26584 5.53223 8.485C5.17806 8.70417 5.00098 9.01125 5.00098 9.40625C5.00098 9.61459 5.04265 9.79709 5.12598 9.95375C5.20931 10.1104 5.33431 10.23 5.50098 10.3125L14.3447 15.8438C14.4489 15.9063 14.5585 15.9533 14.6735 15.985C14.7885 16.0167 14.8976 16.0321 15.001 16.0313Z" fill="#F1C40F"/>
</svg>
