<svg width="80" height="80" viewBox="0 0 80 80" fill="none" xmlns="http://www.w3.org/2000/svg">
<g clip-path="url(#clip0_149_14176)">
<path d="M64.8757 76.1634C63.8062 61.9069 53.4352 50.2708 40.0251 47.06C46.2832 44.2097 50.6446 37.8961 50.6446 30.583C50.6446 30.5498 50.6429 30.5164 50.6426 30.4833H50.9843C52.9137 30.4833 54.4835 28.9136 54.4835 26.9842V26.1811C54.4835 24.7073 53.5671 23.4444 52.2748 22.9295V22.6866C52.2748 18.0531 50.6193 13.5427 47.6134 9.98578C44.8729 6.74328 41.1657 4.465 37.087 3.49391V3.33891C37.0868 1.58406 35.659 0.15625 33.9042 0.15625H31.1959C29.441 0.15625 28.0132 1.58406 28.0132 3.33891V3.49391C23.9345 4.465 20.2274 6.74328 17.487 9.98594C14.4812 13.5427 12.8257 18.0531 12.8257 22.6866V22.9295C11.5332 23.4442 10.6167 24.7072 10.6167 26.1812V26.9844C10.6167 28.9137 12.1863 30.4834 14.1157 30.4834H14.4576C14.4574 30.5166 14.4556 30.55 14.4556 30.5831C14.4556 37.8964 18.817 44.2098 25.0751 47.0602C11.6649 50.2708 1.294 61.9069 0.224465 76.1634C0.153059 77.1138 0.481653 78.057 1.12572 78.7513C1.76978 79.4455 2.68587 79.8438 3.639 79.8438H61.461C62.4142 79.8438 63.3301 79.4456 63.9743 78.7516C64.6184 78.0573 64.947 77.1141 64.8757 76.1634ZM32.5499 62.7867L23.3815 50.1311C26.2804 49.1875 29.3635 48.6773 32.5499 48.6773C35.7365 48.6773 38.8195 49.1875 41.7184 50.1311L32.5499 62.7867ZM31.2999 65.3223V77.3438H12.7112C15.0232 69.6525 15.9032 61.8725 15.3299 54.1814C17.0788 52.9423 18.9631 51.8864 20.9534 51.0406L31.2999 65.3223ZM33.7999 65.3225L44.1467 51.0406C46.137 51.8864 48.0212 52.9425 49.7701 54.1814C49.1968 61.8722 50.0767 69.6522 52.3888 77.3438H33.7999V65.3225ZM40.6981 7.51172L39.9128 19.272C39.8668 19.9608 40.3879 20.5566 41.0767 20.6027C41.1051 20.6045 41.1332 20.6055 41.1612 20.6055C41.8135 20.6055 42.3631 20.0992 42.4071 19.4387L43.0993 9.07094C47.1965 12.2467 49.7729 17.2038 49.7743 22.6822H37.0867V6.07172C38.3598 6.41906 39.5684 6.90531 40.6981 7.51172ZM31.1959 2.65625H33.9042C34.2742 2.65625 34.5868 2.96891 34.5868 3.33891V22.682H30.5132V3.33891C30.5132 2.96891 30.8259 2.65625 31.1959 2.65625ZM22.0007 9.07078L22.6929 19.4387C22.737 20.0992 23.2865 20.6055 23.9388 20.6055C23.9668 20.6055 23.9949 20.6045 24.0234 20.6027C24.7123 20.5566 25.2334 19.9611 25.1873 19.272L24.4021 7.51156C25.5317 6.90516 26.7402 6.41875 28.0132 6.07156V22.6819H15.3259C15.3273 17.2036 17.9037 12.2466 22.0007 9.07078ZM13.1167 26.9842V26.1811C13.1167 25.6302 13.5648 25.1819 14.1157 25.1819H50.9842C51.5351 25.1819 51.9834 25.63 51.9834 26.1811V26.9842C51.9834 27.535 51.5351 27.9833 50.9842 27.9833H49.3729C49.3704 27.9833 49.3681 27.9833 49.3656 27.9833H15.7346C15.7321 27.9833 15.7298 27.9833 15.7273 27.9833H14.1157C13.5649 27.9833 13.1167 27.5352 13.1167 26.9842ZM16.9556 30.5828C16.9556 30.5497 16.9573 30.5162 16.9576 30.4831H48.1426C48.1427 30.5162 48.1446 30.5497 48.1446 30.5828C48.1446 39.1816 41.149 46.1773 32.5501 46.1773C23.9512 46.1773 16.9556 39.1817 16.9556 30.5828ZM2.95837 77.0509C2.78322 76.8622 2.69775 76.6134 2.71743 76.3506C3.32462 68.2575 7.18071 61.0802 12.9387 56.0636C13.2606 63.1348 12.307 70.278 10.096 77.3439H3.639C3.37525 77.3438 3.13353 77.2398 2.95837 77.0509ZM62.1417 77.0511C61.9665 77.2398 61.7249 77.3438 61.461 77.3438H55.0042C52.7932 70.2777 51.8396 63.1345 52.1615 56.0634C57.9195 61.08 61.7756 68.2572 62.3827 76.3503C62.4024 76.6134 62.3168 76.8623 62.1417 77.0511ZM78.5342 37.9334H77.271C77.0085 37.0153 76.6432 36.1344 76.1788 35.2988L77.0726 34.405C77.5607 33.9167 77.5607 33.1255 77.0726 32.6373L73.9079 29.4723C73.6735 29.2378 73.3554 29.1061 73.024 29.1061C72.6926 29.1061 72.3745 29.2378 72.1401 29.4723L71.2462 30.3662C70.4102 29.9016 69.5293 29.5364 68.6115 29.2741V28.0109C68.6115 27.3206 68.0518 26.7609 67.3615 26.7609H62.8857C62.1954 26.7609 61.6357 27.3206 61.6357 28.0109V29.2742C60.7176 29.5369 59.8367 29.902 59.001 30.3662L58.1073 29.4723C57.6193 28.9845 56.8279 28.9845 56.3396 29.4723L53.1748 32.6372C52.6867 33.1253 52.6865 33.9167 53.1748 34.4048L54.0687 35.2989C53.6042 36.1348 53.239 37.0156 52.9765 37.9334H51.7132C51.0229 37.9334 50.4632 38.4931 50.4632 39.1834V43.6594C50.4632 44.3497 51.0229 44.9094 51.7132 44.9094H52.9767C53.2392 45.8275 53.6043 46.7083 54.0687 47.5438L53.1746 48.438C52.6865 48.9261 52.6865 49.7173 53.1746 50.2056L56.3393 53.3703C56.8274 53.8586 57.6188 53.8586 58.107 53.3705L59.001 52.4764C59.8368 52.9409 60.7177 53.3061 61.6356 53.5684V54.8319C61.6356 55.5222 62.1952 56.0819 62.8856 56.0819H67.3613C68.0517 56.0819 68.6113 55.5222 68.6113 54.8319V53.5684C69.5293 53.3059 70.4102 52.9408 71.246 52.4764L72.1399 53.3703C72.3743 53.6048 72.6923 53.7366 73.0238 53.7366C73.3554 53.7366 73.6734 53.6048 73.9077 53.3705L77.0726 50.2056C77.307 49.9711 77.4387 49.6533 77.4387 49.3217C77.4387 48.9902 77.307 48.6723 77.0726 48.4378L76.1787 47.5439C76.6432 46.7081 77.0084 45.8272 77.2709 44.9094H78.534C79.2243 44.9094 79.784 44.3497 79.784 43.6594V39.1834C79.7842 38.4931 79.2245 37.9334 78.5342 37.9334ZM77.2842 42.4094H76.2885C75.6924 42.4094 75.1792 42.8303 75.0626 43.415C74.8035 44.7142 74.2981 45.9336 73.5602 47.0391C73.2293 47.535 73.2946 48.1953 73.7162 48.617L74.421 49.3219L73.0238 50.7189L72.319 50.0141C71.8976 49.5923 71.2371 49.5273 70.7412 49.8581C69.6359 50.5959 68.4165 51.1012 67.117 51.3603C66.5323 51.4769 66.1113 51.99 66.1113 52.5863V53.582H64.1356V52.5863C64.1356 51.9902 63.7146 51.4769 63.1299 51.3603C61.8309 51.1014 60.6115 50.5958 59.5057 49.8581C59.0101 49.5272 58.3498 49.5925 57.9281 50.0139L57.2231 50.7189L55.826 49.3219L56.531 48.6167C56.9524 48.1953 57.0177 47.5347 56.6868 47.0389C55.9492 45.9341 55.4438 44.7147 55.1846 43.415C55.0681 42.8305 54.5549 42.4094 53.9588 42.4094H52.9631V40.4334H53.9588C54.5549 40.4334 55.0682 40.0125 55.1848 39.4278C55.4437 38.1286 55.9492 36.9092 56.687 35.8036C57.0179 35.3078 56.9526 34.6475 56.531 34.2259L55.8262 33.5209L57.2234 32.1239L57.9281 32.8288C58.3496 33.2502 59.0101 33.3152 59.5059 32.9845C60.6107 32.2469 61.8301 31.7416 63.1301 31.4823C63.7146 31.3658 64.1356 30.8527 64.1356 30.2564V29.2608H66.1113V30.2564C66.1113 30.8525 66.5324 31.3659 67.1171 31.4823C68.416 31.7411 69.6356 32.2467 70.7412 32.9845C71.2371 33.3153 71.8976 33.2503 72.319 32.8286L73.0238 32.1237L74.4209 33.5209L73.7162 34.2256C73.2946 34.6472 73.2295 35.3077 73.5604 35.8036C74.2981 36.9086 74.8034 38.1281 75.0627 39.4278C75.1793 40.0123 75.6924 40.4334 76.2885 40.4334H77.2842V42.4094ZM65.1235 33.2089C60.5952 33.2089 56.911 36.893 56.911 41.4214C56.911 45.9498 60.5951 49.6339 65.1235 49.6339C69.652 49.6339 73.336 45.9498 73.336 41.4214C73.336 36.893 69.652 33.2089 65.1235 33.2089ZM65.1235 47.1338C61.9737 47.1338 59.411 44.5713 59.411 41.4212C59.411 38.2713 61.9735 35.7087 65.1235 35.7087C68.2735 35.7087 70.836 38.2713 70.836 41.4212C70.836 44.5713 68.2734 47.1338 65.1235 47.1338ZM69.1342 38.5047C69.6246 38.9906 69.6282 39.782 69.1424 40.2723L65.1227 44.3297C64.8785 44.5764 64.5567 44.7 64.2346 44.7C63.9199 44.7 63.6051 44.5819 63.3623 44.3452L61.1201 42.1597C60.6257 41.6778 60.6156 40.8866 61.0974 40.3922C61.5793 39.8978 62.3706 39.8877 62.8651 40.3695L64.2193 41.6895L67.3663 38.5131C67.8524 38.0225 68.6438 38.0189 69.1342 38.5047Z" fill="#865004"/>
</g>
<defs>
<clipPath id="clip0_149_14176">
<rect width="80" height="80" fill="white"/>
</clipPath>
</defs>
</svg>
