<svg width="30" height="30" viewBox="0 0 30 30" fill="none" xmlns="http://www.w3.org/2000/svg">
<path d="M15.25 30C15.25 30 26.5 19.3387 26.5 11.25C26.5 8.26631 25.3147 5.40483 23.205 3.29505C21.0952 1.18526 18.2337 0 15.25 0C12.2663 0 9.40483 1.18526 7.29505 3.29505C5.18526 5.40483 4 8.26631 4 11.25C4 19.3387 15.25 30 15.25 30ZM15.25 16.875C13.7582 16.875 12.3274 16.2824 11.2725 15.2275C10.2176 14.1726 9.625 12.7418 9.625 11.25C9.625 9.75816 10.2176 8.32742 11.2725 7.27252C12.3274 6.21763 13.7582 5.625 15.25 5.625C16.7418 5.625 18.1726 6.21763 19.2275 7.27252C20.2824 8.32742 20.875 9.75816 20.875 11.25C20.875 12.7418 20.2824 14.1726 19.2275 15.2275C18.1726 16.2824 16.7418 16.875 15.25 16.875Z" fill="#F1C40F"/>
</svg>
