<svg width="53" height="70" viewBox="0 0 53 70" fill="none" xmlns="http://www.w3.org/2000/svg">
<g clip-path="url(#clip0_66_1398)">
<g clip-path="url(#clip1_66_1398)">
<g clip-path="url(#clip2_66_1398)">
<path fill-rule="evenodd" clip-rule="evenodd" d="M0.899414 26.2148V27.4769C0.899414 33.6389 3.00671 39.6175 6.87473 44.4291L26.8994 69.3398L46.9242 44.4291C50.7921 39.6175 52.8994 33.6389 52.8994 27.4769V26.2148C52.8994 11.9244 41.2588 0.339844 26.8994 0.339844C12.54 0.339844 0.899414 11.9244 0.899414 26.2148Z" fill="white"/>
<path d="M26.4132 11.3398V19.2114H24.2493V18.0637C20.275 19.3879 17.4046 23.1398 17.4046 27.5537C17.4046 28.1422 17.4635 28.7308 17.5518 29.2899L18.7 28.6278L19.7745 30.4964L18.1701 31.4233L14.0338 33.8068L12.9739 34.4395L11.8994 32.5709L13.2831 31.7764C12.8856 30.4375 12.6648 29.025 12.6648 27.5684C12.6648 20.5061 17.6254 14.6208 24.2493 13.1642V11.3398H26.4132Z" fill="#E84C3D"/>
<path d="M28.3857 11.3398V19.2114H30.5496V18.0637C34.5239 19.3879 37.3943 23.1398 37.3943 27.5537C37.3943 28.1422 37.3354 28.7308 37.2471 29.2899L36.0989 28.6278L35.0244 30.4964L36.6288 31.4233L40.7651 33.8068L41.825 34.4395L42.8995 32.5709L41.5158 31.7764C41.9133 30.4375 42.1341 29.025 42.1341 27.5684C42.1341 20.5061 37.1735 14.6208 30.5496 13.1642V11.3398H28.3857Z" fill="#F1C40F"/>
<path d="M40.7893 36.2785L33.9692 32.3428L32.8873 34.2158L33.8817 34.7897C30.7472 37.5679 26.0613 38.1767 22.237 35.9697C21.7271 35.6754 21.2466 35.3302 20.8064 34.9742L21.9541 34.3114L20.8724 32.4469L19.267 33.3723L15.1338 35.761L14.0557 36.3621L15.1374 38.2266L16.5176 37.4261C17.4789 38.4396 18.5923 39.3369 19.8544 40.0652C25.9733 43.5964 33.5527 42.245 38.1267 37.2394L39.7074 38.1516L40.7893 36.2785Z" fill="#3598DB"/>
</g>
</g>
</g>
<defs>
<clipPath id="clip0_66_1398">
<rect width="52" height="69" fill="white" transform="translate(0.899414 0.339844)"/>
</clipPath>
<clipPath id="clip1_66_1398">
<rect width="52" height="69" fill="white" transform="translate(0.899414 0.339844)"/>
</clipPath>
<clipPath id="clip2_66_1398">
<rect width="52" height="69" fill="white" transform="translate(0.899414 0.339844)"/>
</clipPath>
</defs>
</svg>
