<svg width="80" height="80" viewBox="0 0 80 80" fill="none" xmlns="http://www.w3.org/2000/svg">
<path d="M67.1517 39.0481L60.52 33.4015C59.9944 32.9539 59.2054 33.0172 58.7579 33.5428C58.3104 34.0684 58.3737 34.8573 58.8993 35.3048L62.9451 38.7498H44.7764C44.5256 34.2195 42.9101 30.0247 40.3226 26.5893L44.8947 22.4967H61.6995L57.6537 25.9415C57.1281 26.389 57.0648 27.1779 57.5123 27.7036C57.7597 27.9939 58.1111 28.1431 58.4647 28.1431C58.7511 28.1431 59.0392 28.0451 59.2745 27.8448L65.8997 22.2036C65.9176 22.1886 65.9351 22.1731 65.9522 22.1568H65.9523C65.9525 22.1565 65.9528 22.1562 65.9531 22.1561C65.9767 22.1336 65.9995 22.1106 66.0212 22.0867C66.2219 21.8657 66.3445 21.5726 66.3458 21.2509V21.2507C66.3458 21.2501 66.3458 21.2495 66.3458 21.2489V21.2486C66.3458 21.2478 66.3458 21.2472 66.3458 21.2464C66.3458 21.2457 66.3458 21.245 66.3458 21.2442V21.2437C66.3458 21.2432 66.3458 21.2426 66.3458 21.242C66.3447 20.9187 66.2208 20.6242 66.0184 20.4029C65.999 20.3817 65.979 20.3612 65.9583 20.3414C65.9579 20.3412 65.9578 20.3411 65.9575 20.3407L65.957 20.3403C65.9384 20.3226 65.9193 20.3054 65.8997 20.2889L59.2745 14.6479C58.7489 14.2003 57.96 14.2637 57.5125 14.7892C57.065 15.3148 57.1283 16.1037 57.6539 16.5512L61.6997 19.9961H44.4169C44.1092 19.9961 43.8123 20.1097 43.5831 20.3147L38.709 24.6776C34.8319 20.5711 29.4094 17.9187 23.3334 17.6875C17.3744 17.4587 11.6826 19.5682 7.30795 23.6218C2.93326 27.6754 0.399508 33.1909 0.172633 39.1506C-0.295648 51.4532 9.33248 61.8431 21.635 62.3114C21.9259 62.3225 22.2156 62.3279 22.5051 62.3279C28.1465 62.3279 33.4994 60.2328 37.6603 56.3768C37.9509 56.1075 38.2328 55.8314 38.507 55.5493L43.627 59.7217C43.85 59.9034 44.1289 60.0028 44.4167 60.0028H61.6992L57.6534 63.4476C57.1278 63.8951 57.0645 64.684 57.5122 65.2097C57.7593 65.5 58.1108 65.6492 58.4645 65.6492C58.7509 65.6492 59.039 65.5512 59.2743 65.3509L65.8995 59.7098C65.919 59.6934 65.9383 59.6762 65.9567 59.6587C65.9568 59.6584 65.9572 59.6582 65.9573 59.6579L65.9579 59.6573C65.9778 59.6384 65.997 59.6189 66.0156 59.5986C66.0159 59.5982 66.0162 59.5978 66.0165 59.5975C66.0169 59.5972 66.0172 59.5967 66.0175 59.5964L66.0176 59.5962C66.2197 59.3754 66.3436 59.0817 66.3453 58.7592V58.759C66.3453 58.7584 66.3453 58.7578 66.3453 58.7572V58.7568C66.3453 58.7562 66.3453 58.7557 66.3453 58.7553C66.3453 58.755 66.3453 58.7547 66.3453 58.7547C66.3453 58.7539 66.3453 58.7531 66.3453 58.7525V58.7523C66.3453 58.7517 66.3453 58.7511 66.3453 58.7503V58.75C66.3453 58.7493 66.3453 58.7487 66.3453 58.7481V58.7479C66.3442 58.4259 66.2214 58.1328 66.0206 57.9118C65.9989 57.8881 65.9762 57.8648 65.9525 57.8426C65.9522 57.8423 65.9519 57.842 65.9515 57.8417C65.9347 57.8257 65.9172 57.8103 65.8994 57.7953L59.2739 52.154C58.7483 51.7064 57.9594 51.7698 57.5118 52.2953C57.0644 52.8209 57.1276 53.6098 57.6533 54.0573L61.699 57.5022H44.8617L40.1487 53.6615C42.9086 50.1089 44.5217 45.8176 44.7756 41.2489H62.945L58.8992 44.6937C58.3736 45.1412 58.3103 45.9301 58.7578 46.4557C59.0051 46.7461 59.3565 46.8953 59.7101 46.8953C59.9965 46.8953 60.2847 46.7973 60.52 46.597L67.1515 40.9504C67.4304 40.7129 67.5911 40.3651 67.5911 39.9987C67.5911 39.6323 67.4306 39.2854 67.1517 39.0481ZM42.2976 40.7539C42.0962 46.0464 39.8459 50.9436 35.9612 54.5434C32.0765 58.1431 27.0211 60.0122 21.7301 59.8134C10.805 59.3975 2.25498 50.1709 2.67091 39.2459C2.87232 33.9534 5.12263 29.0562 9.00732 25.4564C12.7025 22.0322 17.4556 20.1718 22.4656 20.1718C22.7225 20.1718 22.9803 20.1767 23.2384 20.1865C34.1636 20.6023 42.7134 29.8289 42.2976 40.7539ZM74.6051 35.2814C71.7165 35.2814 69.3665 37.6314 69.3665 40.52C69.3665 43.4086 71.7167 45.7586 74.6051 45.7586C77.4936 45.7586 79.8437 43.4087 79.8437 40.5201C79.8437 37.6315 77.4937 35.2814 74.6051 35.2814ZM74.6051 43.2587C73.095 43.2587 71.8665 42.0303 71.8665 40.5201C71.8665 39.01 73.0951 37.7815 74.6051 37.7815C76.1151 37.7815 77.3437 39.01 77.3437 40.5201C77.3437 42.0303 76.1151 43.2587 74.6051 43.2587ZM74.6051 26.4761C77.4937 26.4761 79.8437 24.1261 79.8437 21.2375C79.8437 18.3489 77.4937 15.9989 74.6051 15.9989C71.7165 15.9989 69.3665 18.3489 69.3665 21.2375C69.3665 24.1261 71.7165 26.4761 74.6051 26.4761ZM74.6051 18.4987C76.1153 18.4987 77.3437 19.7272 77.3437 21.2373C77.3437 22.7475 76.1153 23.9759 74.6051 23.9759C73.095 23.9759 71.8665 22.7475 71.8665 21.2373C71.8665 19.7272 73.095 18.4987 74.6051 18.4987ZM74.6051 54.0011C71.7165 54.0011 69.3665 56.3511 69.3665 59.2395C69.3665 62.1281 71.7167 64.4781 74.6051 64.4781C77.4936 64.4781 79.8437 62.1283 79.8437 59.2395C79.8437 56.3511 77.4937 54.0011 74.6051 54.0011ZM74.6051 61.9782C73.095 61.9782 71.8665 60.7498 71.8665 59.2397C71.8665 57.7297 73.0951 56.5012 74.6051 56.5012C76.1151 56.5012 77.3437 57.7295 77.3437 59.2395C77.3437 60.7497 76.1151 61.9782 74.6051 61.9782Z" fill="#865004"/>
</svg>
