<svg width="27" height="258" viewBox="0 0 27 258" fill="none" xmlns="http://www.w3.org/2000/svg">
<mask id="mask0_143_9240" style="mask-type:alpha" maskUnits="userSpaceOnUse" x="0" y="0" width="28" height="258">
<rect x="27.0039" width="257.672" height="27.0038" transform="rotate(90 27.0039 0)" fill="#D9D9D9"/>
</mask>
<g mask="url(#mask0_143_9240)">
<rect x="36.1094" y="-1.00928" width="7.31879" height="49.4649" transform="rotate(74.1434 36.1094 -1.00928)" fill="#FFB800"/>
<rect x="36.1094" y="14.1328" width="7.31879" height="49.4649" transform="rotate(74.1434 36.1094 14.1328)" fill="#FFB800"/>
<rect x="36.1094" y="29.2749" width="7.31879" height="49.4649" transform="rotate(74.1434 36.1094 29.2749)" fill="#FFB800"/>
<rect x="36.1094" y="44.418" width="7.31879" height="49.4649" transform="rotate(74.1434 36.1094 44.418)" fill="#FFB800"/>
<rect x="36.1094" y="59.5601" width="7.31879" height="49.4649" transform="rotate(74.1434 36.1094 59.5601)" fill="#FFB800"/>
<rect x="36.1094" y="74.7021" width="7.31879" height="49.4649" transform="rotate(74.1434 36.1094 74.7021)" fill="#FFB800"/>
<rect x="36.1094" y="89.8447" width="7.31879" height="49.4649" transform="rotate(74.1434 36.1094 89.8447)" fill="#FFB800"/>
<rect x="36.1094" y="104.987" width="7.31879" height="49.4649" transform="rotate(74.1434 36.1094 104.987)" fill="#FFB800"/>
<rect x="36.1094" y="120.129" width="7.31879" height="49.4649" transform="rotate(74.1434 36.1094 120.129)" fill="#FFB800"/>
<rect x="36.1094" y="135.272" width="7.31879" height="49.4649" transform="rotate(74.1434 36.1094 135.272)" fill="#FFB800"/>
<rect x="36.1094" y="150.414" width="7.31879" height="49.4649" transform="rotate(74.1434 36.1094 150.414)" fill="#FFB800"/>
<rect x="36.1094" y="165.556" width="7.31879" height="49.4649" transform="rotate(74.1434 36.1094 165.556)" fill="#FFB800"/>
<rect x="36.1094" y="180.698" width="7.31879" height="49.4649" transform="rotate(74.1434 36.1094 180.698)" fill="#FFB800"/>
<rect x="36.1094" y="195.841" width="7.31879" height="49.4649" transform="rotate(74.1434 36.1094 195.841)" fill="#FFB800"/>
<rect x="36.1094" y="210.983" width="7.31879" height="49.4649" transform="rotate(74.1434 36.1094 210.983)" fill="#FFB800"/>
<rect x="36.1094" y="226.125" width="7.31879" height="49.4649" transform="rotate(74.1434 36.1094 226.125)" fill="#FFB800"/>
</g>
</svg>
