<svg width="43" height="42" viewBox="0 0 43 42" fill="none" xmlns="http://www.w3.org/2000/svg">
<path d="M19.8691 0V10.7678H16.9082V9.19782C11.4701 11.0092 7.54256 16.1416 7.54256 22.1795C7.54256 22.9845 7.62316 23.7897 7.74398 24.5545L9.31507 23.6488L10.7853 26.2049L8.59 27.4728L2.93028 30.7333L1.48001 31.5988L0.00976562 29.0427L1.90309 27.9558C1.35919 26.1243 1.05707 24.1921 1.05707 22.1996C1.05707 12.5389 7.84468 4.48818 16.9082 2.49565V0H19.8691Z" fill="#E84C3D"/>
<path d="M22.5684 0V10.7678H25.5292V9.19782C30.9673 11.0092 34.8949 16.1416 34.8949 22.1795C34.8949 22.9845 34.8143 23.7897 34.6935 24.5545L33.1224 23.6488L31.6521 26.2049L33.8474 27.4728L39.5072 30.7333L40.9574 31.5988L42.4277 29.0427L40.5343 27.9558C41.0783 26.1243 41.3804 24.1921 41.3804 22.1996C41.3804 12.5389 34.5928 4.48818 25.5292 2.49565V0H22.5684Z" fill="#F1C40F"/>
<path d="M39.5397 34.1146L30.2077 28.7308L28.7274 31.293L30.088 32.078C25.799 35.8784 19.3873 36.7112 14.1545 33.6922C13.4568 33.2896 12.7993 32.8174 12.197 32.3304L13.7674 31.4237L12.2873 28.8732L10.0906 30.1391L4.43513 33.4067L2.95996 34.229L4.44006 36.7795L6.32859 35.6844C7.64395 37.0708 9.16742 38.2983 10.8944 39.2945C19.2669 44.125 29.6378 42.2763 35.8965 35.429L38.0593 36.6769L39.5397 34.1146Z" fill="#3598DB"/>
</svg>
