<svg width="80" height="80" viewBox="0 0 80 80" fill="none" xmlns="http://www.w3.org/2000/svg">
<g clip-path="url(#clip0_149_14195)">
<path d="M73.3953 0.15625H6.60469C3.04844 0.15625 0.15625 3.04844 0.15625 6.60469V73.3953C0.15625 76.9516 3.04844 79.8438 6.60469 79.8438H73.3953C76.9516 79.8438 79.8438 76.9516 79.8438 73.3953V6.60469C79.8438 3.04844 76.9516 0.15625 73.3953 0.15625ZM6.60469 2.65625H73.3953C75.5719 2.65625 77.3438 4.42812 77.3438 6.60469V13.4828H2.65625V6.60469C2.65625 4.42812 4.42812 2.65625 6.60469 2.65625ZM73.3953 77.3438H6.60469C4.42812 77.3438 2.65625 75.5719 2.65625 73.3953V15.9828H77.3438V73.3953C77.3438 75.5719 75.5719 77.3438 73.3953 77.3438ZM8.98125 11.2734C10.7469 11.2734 12.1844 9.83594 12.1844 8.07031C12.1844 6.30469 10.7469 4.86719 8.98125 4.86719C7.21562 4.86719 5.77812 6.30469 5.77812 8.07031C5.77812 9.83594 7.21562 11.2734 8.98125 11.2734ZM8.98125 7.36719C9.36875 7.36719 9.68437 7.68281 9.68437 8.07031C9.68437 8.45781 9.36875 8.77344 8.98125 8.77344C8.59375 8.77344 8.27812 8.45781 8.27812 8.07031C8.27812 7.68281 8.59375 7.36719 8.98125 7.36719ZM17.0797 11.2734C18.8453 11.2734 20.2828 9.83594 20.2828 8.07031C20.2828 6.30469 18.8453 4.86719 17.0797 4.86719C15.3141 4.86719 13.8766 6.30469 13.8766 8.07031C13.8766 9.83594 15.3141 11.2734 17.0797 11.2734ZM17.0797 7.36719C17.4672 7.36719 17.7828 7.68281 17.7828 8.07031C17.7828 8.45781 17.4672 8.77344 17.0797 8.77344C16.6922 8.77344 16.3766 8.45781 16.3766 8.07031C16.3766 7.68281 16.6922 7.36719 17.0797 7.36719ZM47.0969 8.07031C47.0969 7.37969 47.6563 6.82031 48.3469 6.82031H70.9719C71.6625 6.82031 72.2219 7.37969 72.2219 8.07031C72.2219 8.76094 71.6625 9.32031 70.9719 9.32031H48.3469C47.6578 9.32031 47.0969 8.75938 47.0969 8.07031ZM25.1781 11.2734C26.9438 11.2734 28.3813 9.83594 28.3813 8.07031C28.3813 6.30469 26.9438 4.86719 25.1781 4.86719C23.4125 4.86719 21.975 6.30469 21.975 8.07031C21.975 9.83594 23.4125 11.2734 25.1781 11.2734ZM25.1781 7.36719C25.5656 7.36719 25.8813 7.68281 25.8813 8.07031C25.8813 8.45781 25.5656 8.77344 25.1781 8.77344C24.7906 8.77344 24.475 8.45781 24.475 8.07031C24.475 7.68281 24.7906 7.36719 25.1781 7.36719ZM73.1922 18.8844H6.80781C6.11719 18.8844 5.55781 19.4438 5.55781 20.1344V73.1922C5.55781 73.8828 6.11719 74.4422 6.80781 74.4422H73.1922C73.8828 74.4422 74.4422 73.8828 74.4422 73.1922V20.1344C74.4422 19.4438 73.8828 18.8844 73.1922 18.8844ZM71.9422 71.9422H8.05781V21.3844H71.9422V71.9422ZM24.5453 51.3344C24.2266 51.3344 23.9188 51.4562 23.6875 51.675L21.3469 53.8828C20.8391 53.6234 20.2641 53.475 19.6562 53.475C17.6031 53.475 15.9344 55.1453 15.9344 57.1969C15.9344 59.2484 17.6047 60.9188 19.6562 60.9188C21.7078 60.9188 23.3781 59.2484 23.3781 57.1969C23.3781 56.6641 23.2656 56.1578 23.0625 55.7L25.0406 53.8328H26.5375V57.6594C26.5375 58.1078 26.6594 58.5266 26.8688 58.8891L25.9641 61.1453L23.9797 62.2578C23.325 61.6859 22.4703 61.3391 21.5359 61.3391C19.4828 61.3391 17.8141 63.0094 17.8141 65.0609C17.8141 67.1125 19.4844 68.7828 21.5359 68.7828C23.5875 68.7828 25.2578 67.1125 25.2578 65.0609C25.2578 64.8484 25.2391 64.6406 25.2047 64.4375L27.5719 63.1109C27.8203 62.9719 28.0141 62.75 28.1203 62.4859L29.0672 60.1234H32.8266V61.6203L30.9594 63.5984C30.5016 63.3969 29.9953 63.2828 29.4625 63.2828C27.4094 63.2828 25.7406 64.9531 25.7406 67.0047C25.7406 69.0563 27.4109 70.7266 29.4625 70.7266C31.5141 70.7266 33.1844 69.0563 33.1844 67.0047C33.1844 66.3969 33.0359 65.8219 32.7766 65.3141L34.9859 62.9734C35.2047 62.7422 35.3266 62.4344 35.3266 62.1156V60.125H38.75V63.5016C37.3109 64.0156 36.2781 65.3938 36.2781 67.0078C36.2781 69.0609 37.9484 70.7297 40 70.7297C42.0516 70.7297 43.7219 69.0594 43.7219 67.0078C43.7219 65.3938 42.6891 64.0172 41.25 63.5016V60.125H44.6703V62.1188C44.6703 62.4375 44.7922 62.7453 45.0109 62.9766L47.2203 65.3172C46.9609 65.825 46.8125 66.4 46.8125 67.0078C46.8125 69.0609 48.4828 70.7297 50.5344 70.7297C52.5859 70.7297 54.2562 69.0594 54.2562 67.0078C54.2562 64.9563 52.5859 63.2859 50.5344 63.2859C50.0016 63.2859 49.4953 63.3984 49.0375 63.6016L47.1703 61.6234V60.1266H50.9297L51.8766 62.4891C51.9828 62.7547 52.1766 62.975 52.425 63.1141L54.7922 64.4406C54.7578 64.6438 54.7391 64.8516 54.7391 65.0641C54.7391 67.1172 56.4094 68.7859 58.4609 68.7859C60.5125 68.7859 62.1828 67.1156 62.1828 65.0641C62.1828 63.0125 60.5125 61.3422 58.4609 61.3422C57.5266 61.3422 56.6703 61.6891 56.0172 62.2609L54.0328 61.1484L53.1281 58.8922C53.3375 58.5297 53.4594 58.1109 53.4594 57.6625V53.8359H54.9562L56.9344 55.7031C56.7328 56.1609 56.6187 56.6672 56.6187 57.2C56.6187 59.2531 58.2891 60.9219 60.3406 60.9219C62.3922 60.9219 64.0625 59.2516 64.0625 57.2C64.0625 55.1484 62.3922 53.4781 60.3406 53.4781C59.7328 53.4781 59.1578 53.6266 58.65 53.8859L56.3094 51.6781C56.0766 51.4594 55.7703 51.3375 55.4516 51.3375H53.4578V47.9156H56.8344C57.3484 49.3547 58.7266 50.3875 60.3406 50.3875C62.3937 50.3875 64.0625 48.7172 64.0625 46.6656C64.0625 44.6141 62.3922 42.9437 60.3406 42.9437C58.7266 42.9437 57.35 43.9766 56.8344 45.4156H53.4578V41.9938H55.4516C55.7703 41.9938 56.0781 41.8719 56.3094 41.6531L58.65 39.4453C59.1578 39.7047 59.7328 39.8531 60.3406 39.8531C62.3937 39.8531 64.0625 38.1828 64.0625 36.1313C64.0625 34.0797 62.3922 32.4094 60.3406 32.4094C58.2891 32.4094 56.6187 34.0797 56.6187 36.1313C56.6187 36.6641 56.7313 37.1703 56.9344 37.6281L54.9562 39.4953H53.4594V35.6688C53.4594 35.2203 53.3375 34.8016 53.1281 34.4391L54.0328 32.1828L56.0172 31.0703C56.6719 31.6422 57.5266 31.9891 58.4609 31.9891C60.5141 31.9891 62.1828 30.3188 62.1828 28.2672C62.1828 26.2156 60.5125 24.5453 58.4609 24.5453C56.4094 24.5453 54.7391 26.2156 54.7391 28.2672C54.7391 28.4797 54.7578 28.6875 54.7922 28.8906L52.425 30.2172C52.1766 30.3563 51.9828 30.5781 51.8766 30.8422L50.9297 33.2047H47.1719V31.7078L49.0391 29.7297C49.4969 29.9313 50.0031 30.0453 50.5359 30.0453C52.5891 30.0453 54.2578 28.375 54.2578 26.3234C54.2578 24.2719 52.5875 22.6016 50.5359 22.6016C48.4844 22.6016 46.8141 24.2719 46.8141 26.3234C46.8141 26.9312 46.9625 27.5062 47.2219 28.0141L45.0125 30.3547C44.7937 30.5859 44.6719 30.8937 44.6719 31.2125V33.2062H41.25V29.8297C42.6891 29.3156 43.7219 27.9375 43.7219 26.3234C43.7219 24.2703 42.0516 22.6016 40 22.6016C37.9484 22.6016 36.2781 24.2719 36.2781 26.3234C36.2781 27.9375 37.3109 29.3141 38.75 29.8297V33.2062H35.3281V31.2125C35.3281 30.8937 35.2062 30.5859 34.9875 30.3547L32.7781 28.0141C33.0375 27.5062 33.1859 26.9312 33.1859 26.3234C33.1859 24.2703 31.5156 22.6016 29.4641 22.6016C27.4125 22.6016 25.7422 24.2719 25.7422 26.3234C25.7422 28.375 27.4125 30.0453 29.4641 30.0453C29.9969 30.0453 30.5031 29.9328 30.9609 29.7297L32.8281 31.7078V33.2047H29.0687L28.1219 30.8422C28.0156 30.5766 27.8219 30.3563 27.5734 30.2172L25.2063 28.8906C25.2406 28.6875 25.2594 28.4797 25.2594 28.2672C25.2594 26.2141 23.5891 24.5453 21.5375 24.5453C19.4859 24.5453 17.8156 26.2156 17.8156 28.2672C17.8156 30.3188 19.4859 31.9891 21.5375 31.9891C22.4719 31.9891 23.3281 31.6422 23.9812 31.0703L25.9656 32.1828L26.8703 34.4391C26.6609 34.8016 26.5391 35.2203 26.5391 35.6688V39.4953H25.0422L23.0625 37.625C23.2641 37.1672 23.3781 36.6609 23.3781 36.1281C23.3781 34.075 21.7078 32.4062 19.6562 32.4062C17.6047 32.4062 15.9344 34.0766 15.9344 36.1281C15.9344 38.1797 17.6047 39.85 19.6562 39.85C20.2641 39.85 20.8391 39.7016 21.3469 39.4422L23.6875 41.65C23.9203 41.8687 24.2266 41.9906 24.5453 41.9906H26.5391V45.4125H23.1625C22.6484 43.9734 21.2703 42.9406 19.6562 42.9406C17.6031 42.9406 15.9344 44.6109 15.9344 46.6625C15.9344 48.7141 17.6047 50.3844 19.6562 50.3844C21.2703 50.3844 22.6469 49.3516 23.1625 47.9125H26.5391V51.3344H24.5453ZM19.6562 58.4203C18.9828 58.4203 18.4344 57.8719 18.4344 57.1984C18.4344 56.525 18.9828 55.9766 19.6562 55.9766C20.3297 55.9766 20.8781 56.525 20.8781 57.1984C20.8781 57.8719 20.3297 58.4203 19.6562 58.4203ZM21.5375 66.2859C20.8641 66.2859 20.3156 65.7375 20.3156 65.0641C20.3156 64.3906 20.8641 63.8422 21.5375 63.8422C22.2109 63.8422 22.7594 64.3906 22.7594 65.0641C22.7594 65.7375 22.2109 66.2859 21.5375 66.2859ZM29.4656 68.2297C28.7922 68.2297 28.2437 67.6813 28.2437 67.0078C28.2437 66.3344 28.7922 65.7859 29.4656 65.7859C30.1391 65.7859 30.6875 66.3344 30.6875 67.0078C30.6875 67.6813 30.1391 68.2297 29.4656 68.2297ZM40 68.2297C39.3266 68.2297 38.7781 67.6813 38.7781 67.0078C38.7781 66.3344 39.3266 65.7859 40 65.7859C40.6734 65.7859 41.2219 66.3344 41.2219 67.0078C41.2219 67.6813 40.6734 68.2297 40 68.2297ZM51.7578 67.0078C51.7578 67.6813 51.2094 68.2297 50.5359 68.2297C49.8625 68.2297 49.3141 67.6813 49.3141 67.0078C49.3141 66.3344 49.8625 65.7859 50.5359 65.7859C51.2094 65.7859 51.7578 66.3344 51.7578 67.0078ZM58.4625 63.8406C59.1359 63.8406 59.6844 64.3891 59.6844 65.0625C59.6844 65.7359 59.1359 66.2844 58.4625 66.2844C57.7891 66.2844 57.2406 65.7359 57.2406 65.0625C57.2406 64.3891 57.7891 63.8406 58.4625 63.8406ZM60.3438 55.9766C61.0172 55.9766 61.5656 56.525 61.5656 57.1984C61.5656 57.8719 61.0172 58.4203 60.3438 58.4203C59.6703 58.4203 59.1219 57.8719 59.1219 57.1984C59.1219 56.525 59.6703 55.9766 60.3438 55.9766ZM60.3438 45.4406C61.0172 45.4406 61.5656 45.9891 61.5656 46.6625C61.5656 47.3359 61.0172 47.8844 60.3438 47.8844C59.6703 47.8844 59.1219 47.3359 59.1219 46.6625C59.1219 45.9891 59.6703 45.4406 60.3438 45.4406ZM60.3438 34.9062C61.0172 34.9062 61.5656 35.4547 61.5656 36.1281C61.5656 36.8016 61.0172 37.35 60.3438 37.35C59.6703 37.35 59.1219 36.8016 59.1219 36.1281C59.1219 35.4547 59.6703 34.9062 60.3438 34.9062ZM58.4625 27.0422C59.1359 27.0422 59.6844 27.5906 59.6844 28.2641C59.6844 28.9375 59.1359 29.4859 58.4625 29.4859C57.7891 29.4859 57.2406 28.9375 57.2406 28.2641C57.2406 27.5891 57.7891 27.0422 58.4625 27.0422ZM50.5344 25.0969C51.2078 25.0969 51.7562 25.6453 51.7562 26.3188C51.7562 26.9922 51.2078 27.5406 50.5344 27.5406C49.8609 27.5406 49.3125 26.9922 49.3125 26.3188C49.3125 25.6453 49.8609 25.0969 50.5344 25.0969ZM40 25.0969C40.6734 25.0969 41.2219 25.6453 41.2219 26.3188C41.2219 26.9922 40.6734 27.5406 40 27.5406C39.3266 27.5406 38.7781 26.9922 38.7781 26.3188C38.7781 25.6453 39.3266 25.0969 40 25.0969ZM28.2422 26.3188C28.2422 25.6453 28.7906 25.0969 29.4641 25.0969C30.1375 25.0969 30.6859 25.6453 30.6859 26.3188C30.6859 26.9922 30.1375 27.5406 29.4641 27.5406C28.7906 27.5406 28.2422 26.9937 28.2422 26.3188ZM21.5375 29.4859C20.8641 29.4859 20.3156 28.9375 20.3156 28.2641C20.3156 27.5906 20.8641 27.0422 21.5375 27.0422C22.2109 27.0422 22.7594 27.5906 22.7594 28.2641C22.7594 28.9375 22.2109 29.4859 21.5375 29.4859ZM19.6562 37.35C18.9828 37.35 18.4344 36.8016 18.4344 36.1281C18.4344 35.4547 18.9828 34.9062 19.6562 34.9062C20.3297 34.9062 20.8781 35.4547 20.8781 36.1281C20.8781 36.8016 20.3297 37.35 19.6562 37.35ZM19.6562 47.8859C18.9828 47.8859 18.4344 47.3375 18.4344 46.6641C18.4344 45.9906 18.9828 45.4422 19.6562 45.4422C20.3297 45.4422 20.8781 45.9906 20.8781 46.6641C20.8781 47.3375 20.3297 47.8859 19.6562 47.8859ZM29.0391 35.7016H50.9609V57.6234H29.0391V35.7016ZM47.6797 37.7328H35.6406C35.3094 37.7328 34.9906 37.8641 34.7562 38.0984L31.4344 41.4203C31.2 41.6547 31.0687 41.9734 31.0687 42.3047V54.3438C31.0687 55.0344 31.6281 55.5938 32.3187 55.5938H47.6781C48.3688 55.5938 48.9281 55.0344 48.9281 54.3438V38.9828C48.9297 38.2922 48.3703 37.7328 47.6797 37.7328ZM46.4297 53.0938H33.5703V42.8234L36.1594 40.2344H46.4297V53.0938Z" fill="#865004"/>
</g>
<defs>
<clipPath id="clip0_149_14195">
<rect width="80" height="80" fill="white"/>
</clipPath>
</defs>
</svg>
