<svg width="80" height="80" viewBox="0 0 80 80" fill="none" xmlns="http://www.w3.org/2000/svg">
<path d="M71.7044 50.6771H69.1008V46.0914C69.1008 45.4011 68.5411 44.8414 67.8508 44.8414H67.1328V36.8863C67.1328 36.196 66.5731 35.6363 65.8828 35.6363H61.1213C60.4309 35.6363 59.8713 36.196 59.8713 36.8863V44.8414H59.1534C58.4631 44.8414 57.9034 45.4011 57.9034 46.0914V50.6771H47.1553V46.0914C47.1553 45.4011 46.5956 44.8414 45.9053 44.8414H45.1873V36.8863C45.1873 36.196 44.6277 35.6363 43.9373 35.6363H39.1758C38.4855 35.6363 37.9258 36.196 37.9258 36.8863V44.8414H37.2078C36.5175 44.8414 35.9578 45.4011 35.9578 46.0914V50.6771H34.6042V46.0914C34.6042 45.4011 34.0445 44.8414 33.3542 44.8414H29.9344L27.8702 29.2116C27.7881 28.5899 27.2581 28.1254 26.6309 28.1254H15.02C14.3928 28.1254 13.863 28.59 13.7808 29.2118L11.7167 44.8414H8.29688C7.60656 44.8414 7.04688 45.4011 7.04688 46.0914V78.5925C7.04688 79.2829 7.60656 79.8425 8.29688 79.8425H71.7044C72.3947 79.8425 72.9544 79.2829 72.9544 78.5925V51.9271C72.9544 51.2368 72.3947 50.6771 71.7044 50.6771ZM62.3713 38.1363H64.6328V44.8414H62.3713V38.1363ZM60.4036 47.3414H66.6008V50.6771H60.4036V47.3414ZM40.4258 38.1363H42.6873V44.8414H40.4258V38.1363ZM38.4578 47.3414H44.6552V50.6771H38.4578V47.3414ZM16.1156 30.6254H25.5353L27.4128 44.8414H14.2383L16.1156 30.6254ZM9.54688 47.3414H32.1042V77.3425H26.9958V65.5366C26.9958 63.4799 25.3225 61.8066 23.2658 61.8066H18.3855C16.3288 61.8066 14.6555 63.4799 14.6555 65.5366V77.3425H9.54688V47.3414ZM24.4958 77.3425H17.1553V65.5366C17.1553 64.8583 17.707 64.3066 18.3853 64.3066H23.2656C23.9439 64.3066 24.4956 64.8583 24.4956 65.5366L24.4958 77.3425ZM70.4544 77.3425H34.6044V53.1771H70.4544V77.3425ZM16.5681 21.8355C16.46 22.2218 16.4044 22.6232 16.4044 23.0297C16.4044 25.4677 18.3877 27.451 20.8256 27.451C22.9119 27.451 24.6652 25.9985 25.1277 24.0519C25.6584 24.2163 26.2167 24.3016 26.7867 24.3016C28.8991 24.3016 30.7548 23.1329 31.7047 21.3774C32.1506 21.6439 32.6358 21.8491 33.1516 21.9872C35.6286 22.6507 38.2295 21.5486 39.5022 19.3916C41.8402 19.0025 43.7508 17.2947 44.3781 14.9544C45.1353 12.1282 43.8041 9.24832 41.2934 7.95895C41.5588 4.52301 39.3583 1.32348 35.9273 0.404105C33.003 -0.379176 29.9427 0.758949 28.2042 3.10457C27.8389 2.87801 27.4397 2.70426 27.0178 2.59114C24.6633 1.95989 22.2342 3.3627 21.6033 5.71739C21.5413 5.94942 21.498 6.18286 21.4741 6.41723C19.6433 6.92161 18.1858 8.35457 17.6761 10.2561C17.4731 11.0135 17.4384 11.8044 17.5672 12.57C15.6978 13.4568 14.4423 15.363 14.4423 17.51C14.4422 19.2185 15.2486 20.8132 16.5681 21.8355ZM19.3408 14.5988C19.7152 14.5264 20.0361 14.2871 20.2123 13.9488C20.3884 13.6105 20.4005 13.2102 20.2452 12.8619C19.9675 12.24 19.9142 11.5627 20.0909 10.9032C20.4263 9.65176 21.5202 8.77551 22.8128 8.72254C23.1777 8.7077 23.5178 8.53395 23.7436 8.24723C23.9695 7.96051 24.0589 7.58926 23.988 7.23114C23.9311 6.94286 23.9411 6.65129 24.018 6.36426C24.2477 5.50692 25.0258 4.9402 25.8741 4.9402C26.0381 4.9402 26.2048 4.96145 26.3708 5.00582C26.8186 5.12582 27.2075 5.40317 27.4661 5.78707C27.723 6.16817 28.1675 6.37786 28.6252 6.33286C29.0823 6.28801 29.4781 5.99582 29.6558 5.57207C30.5709 3.38832 32.9892 2.20442 35.2803 2.81864C37.7605 3.48317 39.2605 5.96426 38.695 8.46692C38.5508 9.10442 38.9223 9.74536 39.547 9.93739C41.4056 10.5082 42.4669 12.4277 41.9633 14.3071C41.5541 15.8344 40.2188 16.9054 38.6408 16.9721C38.1563 16.9925 37.7272 17.2914 37.5403 17.7389C36.9325 19.1929 35.3245 19.9813 33.7986 19.5722C33.1131 19.3886 32.5248 18.9936 32.0969 18.43C31.7873 18.0222 31.2603 17.8444 30.7672 17.9813C30.2741 18.118 29.9139 18.5418 29.8586 19.0507C29.688 20.6189 28.3673 21.8014 26.7869 21.8014C25.9766 21.8014 25.2106 21.4899 24.6302 20.9241C24.2052 20.5099 23.5478 20.4518 23.0569 20.7843C22.5656 21.1169 22.3759 21.749 22.6027 22.2971C22.6984 22.5288 22.7472 22.7754 22.7472 23.0296C22.7472 24.0889 21.8852 24.9508 20.8258 24.9508C19.7664 24.9508 18.9045 24.0889 18.9045 23.0296C18.9045 22.6655 19.0064 22.3118 19.1995 22.0063C19.3917 21.7019 19.4436 21.3296 19.3414 20.9844C19.2392 20.6393 18.9934 20.3549 18.6669 20.2039C17.6194 19.7202 16.9425 18.6627 16.9425 17.5099C16.9422 16.0916 17.9509 14.8672 19.3408 14.5988ZM43.2261 72.4302H61.8327C62.523 72.4302 63.0827 71.8705 63.0827 71.1802V59.3396C63.0827 58.6493 62.523 58.0896 61.8327 58.0896H43.2261C42.5358 58.0896 41.9761 58.6493 41.9761 59.3396V71.1802C41.9761 71.8705 42.5358 72.4302 43.2261 72.4302ZM44.4761 66.5099H51.2794V69.9302H44.4761V66.5099ZM53.7794 69.9302V66.5099H60.5827V69.9302H53.7794ZM60.5827 64.0099H53.7794V60.5894H60.5827V64.0099ZM51.2794 60.5894V64.0099H44.4761V60.5894H51.2794ZM38.9547 24.6835C42.5806 21.0575 47.4016 19.0607 52.5294 19.0607C57.657 19.0607 62.4781 21.0575 66.1041 24.6835C66.5922 25.1716 66.5922 25.963 66.1041 26.4511C65.86 26.6952 65.5402 26.8172 65.2202 26.8172C64.9003 26.8172 64.5803 26.6954 64.3363 26.4511C61.1825 23.2974 56.9894 21.5607 52.5295 21.5607C48.0694 21.5607 43.8764 23.2975 40.7228 26.4511C40.2347 26.9393 39.4434 26.9396 38.955 26.4511C38.4666 25.9632 38.4666 25.1716 38.9547 24.6835ZM60.9519 29.8355C56.3078 25.1911 48.7509 25.1908 44.1066 29.8355C43.6183 30.3236 42.827 30.3235 42.3387 29.8355C41.8506 29.3472 41.8506 28.556 42.3387 28.0677C47.958 22.4486 57.1006 22.4489 62.7197 28.0677C63.2078 28.556 63.2078 29.3472 62.7197 29.8355C62.4756 30.0796 62.1558 30.2016 61.8358 30.2016C61.5158 30.2016 61.1961 30.0796 60.9519 29.8355ZM57.5677 33.2196C54.7897 30.4413 50.2691 30.4413 47.4908 33.2196C47.0028 33.7077 46.2114 33.7075 45.7231 33.2194C45.235 32.7313 45.235 31.9399 45.7233 31.4518C49.4763 27.6986 55.5828 27.6989 59.3356 31.4518C59.8238 31.94 59.8238 32.7313 59.3356 33.2196C59.0916 33.4636 58.7717 33.5857 58.4517 33.5857C58.1317 33.5857 57.8119 33.4636 57.5677 33.2196ZM48.7648 37.183C48.7648 39.2586 50.4536 40.9474 52.5294 40.9474C54.605 40.9474 56.2938 39.2586 56.2938 37.183C56.2938 35.1072 54.605 33.4185 52.5294 33.4185C50.4536 33.4186 48.7648 35.1072 48.7648 37.183ZM53.7938 37.183C53.7938 37.8802 53.2266 38.4474 52.5294 38.4474C51.8322 38.4474 51.2648 37.8802 51.2648 37.183C51.2648 36.4858 51.8322 35.9185 52.5294 35.9185C53.2266 35.9185 53.7938 36.486 53.7938 37.183Z" fill="#865004"/>
</svg>
