<svg width="30" height="30" viewBox="0 0 30 30" fill="none" xmlns="http://www.w3.org/2000/svg">
<path d="M8.75098 28.75C8.06348 28.75 7.47473 28.505 6.98473 28.015C6.49473 27.525 6.25015 26.9367 6.25098 26.25V3.75C6.25098 3.0625 6.49598 2.47375 6.98598 1.98375C7.47598 1.49375 8.06431 1.24917 8.75098 1.25H21.251C21.9385 1.25 22.5272 1.495 23.0172 1.985C23.5072 2.475 23.7518 3.06334 23.751 3.75V26.25C23.751 26.9375 23.506 27.5263 23.016 28.0163C22.526 28.5063 21.9376 28.7508 21.251 28.75H8.75098ZM15.001 25.625C15.3551 25.625 15.6522 25.505 15.8922 25.265C16.1322 25.025 16.2518 24.7283 16.251 24.375C16.251 24.0208 16.131 23.7238 15.891 23.4838C15.651 23.2438 15.3543 23.1242 15.001 23.125C14.6468 23.125 14.3497 23.245 14.1097 23.485C13.8697 23.725 13.7501 24.0217 13.751 24.375C13.751 24.7292 13.871 25.0263 14.111 25.2663C14.351 25.5063 14.6476 25.6258 15.001 25.625ZM8.75098 20H21.251V7.5H8.75098V20Z" fill="#F1C40F"/>
</svg>
