<svg width="80" height="80" viewBox="0 0 80 80" fill="none" xmlns="http://www.w3.org/2000/svg">
<path d="M72.4078 7.4943H69.0423C68.352 7.4943 67.7923 8.05398 67.7923 8.7443V16.5476H12.2077V8.7443C12.2077 8.05398 11.648 7.4943 10.9577 7.4943H7.59203C3.49203 7.4943 0.15625 10.8301 0.15625 14.9301V68.8357C0.15625 72.9359 3.49203 76.2715 7.59203 76.2715H72.4078C76.508 76.2715 79.8436 72.9357 79.8438 68.8357V14.9301C79.8438 10.8301 76.508 7.4943 72.4078 7.4943ZM70.2923 9.9943H72.4078C75.1295 9.9943 77.3438 12.2085 77.3438 14.9301V63.2787C76.0298 62.1102 74.3002 61.3998 72.4078 61.3998H70.2923V9.9943ZM2.65625 14.9301C2.65625 12.2085 4.87047 9.9943 7.59203 9.9943H9.70766V61.3998H7.59203C5.69969 61.3998 3.97 62.1104 2.65625 63.2787V14.9301ZM72.4078 73.7716H7.59203C4.87047 73.7716 2.65625 71.5574 2.65625 68.8357C2.65625 66.114 4.87047 63.8998 7.59203 63.8998H10.9577C11.648 63.8998 12.2077 63.3401 12.2077 62.6498V19.0476H67.7923V62.6498C67.7923 63.3401 68.352 63.8998 69.0423 63.8998H72.4078C75.1295 63.8998 77.3438 66.114 77.3438 68.8357C77.3438 71.5574 75.1295 73.7716 72.4078 73.7716ZM22.4484 12.7743H53.2461C53.4298 12.7743 53.6114 12.7338 53.7778 12.6555L59.072 10.1674C59.8225 9.81477 60.2887 9.08055 60.2887 8.25148C60.2887 7.42242 59.8227 6.6882 59.0722 6.33555L53.7778 3.84727C53.6116 3.76914 53.4298 3.72852 53.2461 3.72852L22.4486 3.72867C22.4486 3.72867 22.4486 3.72867 22.4484 3.72867C21.7184 3.72867 21.0314 4.01367 20.5139 4.53117C19.9964 5.04867 19.7113 5.73586 19.7114 6.46586V10.037C19.7113 11.5463 20.9392 12.7743 22.4484 12.7743ZM51.9991 10.2741H27.0636V6.22883L51.9989 6.22867L51.9991 10.2741ZM54.4991 9.55414V6.94852L57.2713 8.25133L54.4991 9.55414ZM22.2112 6.46586C22.2112 6.38617 22.2495 6.33117 22.2816 6.29914C22.3136 6.26711 22.3686 6.22883 22.4484 6.22883H24.5636V10.2743H22.4484C22.3198 10.2743 22.2112 10.1657 22.2112 10.0371V6.46586ZM63.6377 29.0379V62.1885H64.1787C64.8691 62.1885 65.4287 62.7482 65.4287 63.4385C65.4287 64.1288 64.8691 64.6885 64.1787 64.6885H60.5966C59.9062 64.6885 59.3466 64.1288 59.3466 63.4385C59.3466 62.7482 59.9062 62.1885 60.5966 62.1885H61.1377V29.0379H60.5966C59.9062 29.0379 59.3466 28.4782 59.3466 27.7879C59.3466 27.0976 59.9062 26.5379 60.5966 26.5379H64.1787C64.8691 26.5379 65.4287 27.0976 65.4287 27.7879C65.4287 28.4782 64.8691 29.0379 64.1787 29.0379H63.6377ZM59.0753 66.1555V69.7376C59.0753 70.4279 58.5156 70.9876 57.8253 70.9876C57.135 70.9876 56.5753 70.4279 56.5753 69.7376V69.1966H23.4247V69.7376C23.4247 70.4279 22.865 70.9876 22.1747 70.9876C21.4844 70.9876 20.9247 70.4279 20.9247 69.7376V66.1555C20.9247 65.4652 21.4844 64.9055 22.1747 64.9055C22.865 64.9055 23.4247 65.4652 23.4247 66.1555V66.6966H56.5753V66.1555C56.5753 65.4652 57.135 64.9055 57.8253 64.9055C58.5156 64.9055 59.0753 65.4652 59.0753 66.1555ZM23.1806 62.2613H50.1825C51.8906 62.2613 53.2802 60.8716 53.2802 59.1635V40.8087L54.5767 41.7507C55.1256 42.1495 55.7723 42.3582 56.4383 42.3582C56.6064 42.3582 56.7758 42.3449 56.9452 42.3179C57.7856 42.1843 58.5233 41.7313 59.0223 41.0423C60.0502 39.6235 59.7328 37.631 58.3148 36.6004L38.5777 22.2605C37.4788 21.4359 35.9327 21.4273 34.8123 22.241L15.0481 36.6004C13.63 37.6309 13.3128 39.6235 14.3406 41.0421C14.8397 41.731 15.5773 42.184 16.4177 42.3177C17.2578 42.4515 18.0988 42.2499 18.7863 41.7504L20.0827 40.8085V59.1634C20.083 60.8716 21.4727 62.2613 23.1806 62.2613ZM41.5311 59.7613H31.8322V47.8235C31.8322 47.0598 32.4536 46.4384 33.2173 46.4384H40.1459C40.9097 46.4384 41.5311 47.0598 41.5311 47.8235V59.7613ZM50.7803 59.1635C50.7803 59.493 50.5122 59.7613 50.1827 59.7613H44.0311V47.8235C44.0311 45.6813 42.2883 43.9384 40.1459 43.9384H33.2173C31.0752 43.9384 29.3322 45.6812 29.3322 47.8235V59.7613H23.1806C22.8511 59.7613 22.5828 59.4932 22.5828 59.1635V38.9924L36.6816 28.749L50.7802 38.9924L50.7803 59.1635ZM17.3172 39.728C17.1705 39.8346 16.9909 39.8777 16.8108 39.849C16.6305 39.8202 16.4722 39.7232 16.3653 39.5755C16.145 39.2715 16.2134 38.8441 16.5178 38.623L36.2819 24.2638C36.4025 24.1762 36.5453 24.1323 36.6866 24.1323C36.8267 24.1323 36.9655 24.1754 37.0795 24.262C37.0861 24.267 37.0928 24.272 37.0995 24.2768L56.8455 38.6229C57.1498 38.8441 57.2183 39.2715 56.9981 39.5755C56.8911 39.7232 56.733 39.8202 56.5525 39.849C56.3727 39.8776 56.1928 39.8346 56.0463 39.728L37.4164 26.1924C36.9783 25.8741 36.385 25.8741 35.947 26.1924L17.3172 39.728Z" fill="#865004"/>
</svg>
