<svg width="80" height="80" viewBox="0 0 80 80" fill="none" xmlns="http://www.w3.org/2000/svg">
<path d="M42.783 28.9637H47.3904L44.3749 39.2771C44.2102 39.8402 44.4596 40.4423 44.9741 40.7243C45.1634 40.8279 45.3696 40.8779 45.5741 40.8779C45.9259 40.8779 46.2721 40.7296 46.5162 40.4502L60.1512 24.8374C60.4737 24.4682 60.5505 23.9445 60.3477 23.498C60.1449 23.0518 59.6999 22.7652 59.2098 22.7652H55.4737L60.118 15.1626C60.3538 14.7766 60.3627 14.2937 60.1415 13.8993C59.9202 13.5051 59.5035 13.2609 59.0513 13.2609H49.0101C48.5263 13.2609 48.0859 13.5401 47.8796 13.9776L41.6524 27.1805C41.4698 27.5679 41.498 28.0216 41.7273 28.383C41.9566 28.7446 42.3549 28.9637 42.783 28.9637ZM49.8027 15.7607H56.8232L52.1788 23.3634C51.943 23.7493 51.9341 24.2324 52.1554 24.6266C52.3766 25.0209 52.7934 25.2651 53.2455 25.2651H56.4587L48.3679 34.5295L50.2582 28.0645C50.3687 27.6866 50.2946 27.279 50.0587 26.964C49.8227 26.649 49.4521 26.4637 49.0585 26.4637H44.7549L49.8027 15.7607ZM50.9963 53.6681C65.6629 53.6681 77.5949 41.736 77.5949 27.0695C77.5949 12.4029 65.6629 0.470703 50.9963 0.470703C36.3298 0.470703 24.3977 12.4027 24.3977 27.0693C24.3977 41.7359 36.3298 53.6681 50.9963 53.6681ZM50.9963 2.9707C64.2843 2.9707 75.0949 13.7813 75.0949 27.0693C75.0949 40.3573 64.2843 51.1679 50.9963 51.1679C37.7084 51.1679 26.8977 40.3573 26.8977 27.0693C26.8977 13.7813 37.7084 2.9707 50.9963 2.9707ZM50.9963 47.7307C62.389 47.7307 71.6576 38.4621 71.6576 27.0695C71.6576 15.6768 62.389 6.40805 50.9963 6.40805C39.6037 6.40805 30.3351 15.6766 30.3351 27.0693C30.3351 38.462 39.6037 47.7307 50.9963 47.7307ZM50.9963 8.90805C61.0105 8.90805 69.1576 17.0552 69.1576 27.0693C69.1576 37.0834 61.0105 45.2307 50.9963 45.2307C40.9823 45.2307 32.8351 37.0835 32.8351 27.0695C32.8351 17.0554 40.9823 8.90805 50.9963 8.90805ZM70.3446 60.2082C68.9254 59.3887 67.2769 59.1698 65.7027 59.5915L47.8073 64.3863C48.2076 61.7696 47.0124 59.0506 44.5901 57.639L28.3352 48.1687C28.287 48.1404 28.2368 48.1156 28.1851 48.0941C25.6271 47.0323 23.0326 47.0299 20.4741 48.0873L14.8582 50.4073V48.9074C14.8582 47.3284 13.5735 46.0435 11.9945 46.0435H5.26805C3.68898 46.0435 2.4043 47.3284 2.4043 48.9074V74.1452C2.4043 75.7243 3.68898 77.0091 5.26805 77.0091H11.9946C13.5737 77.0091 14.8584 75.7243 14.8584 74.1452V72.9368C17.8323 71.747 20.2496 71.8368 22.8399 73.209L32.266 78.2024C33.934 79.086 35.6216 79.5291 37.3084 79.5291C38.1638 79.5291 39.0191 79.4152 39.8713 79.187L68.8716 71.4168C72.1313 70.5434 74.0729 67.1804 73.1996 63.9201C72.7777 62.346 71.7638 61.0277 70.3446 60.2082ZM11.9945 74.5091H5.26789C5.0707 74.5091 4.90414 74.3426 4.90414 74.1452V48.9074C4.90414 48.7101 5.0707 48.5435 5.26789 48.5435H11.9943C12.1915 48.5435 12.358 48.7101 12.358 48.9074V74.1452C12.3582 74.3426 12.1916 74.5091 11.9945 74.5091ZM68.2243 69.0018L39.224 76.772C37.2941 77.2888 35.4009 77.034 33.436 75.9932L24.0099 70.9998C21.0212 69.4166 18.1424 69.1776 14.8582 70.2751V53.112L21.4287 50.3977C23.3545 49.6023 25.2274 49.5938 27.1515 50.3723L43.3313 59.799C45.3032 60.9481 45.9726 63.4868 44.8238 65.4584C43.6749 67.4299 41.1362 68.0993 39.1646 66.9509L30.4818 61.892C29.8851 61.5445 29.1201 61.7462 28.7726 62.3427C28.4249 62.9391 28.6268 63.7046 29.2234 64.052L37.9062 69.1109C38.9548 69.7218 40.1027 70.0123 41.237 70.0121C43.3035 70.012 45.3201 69.0448 46.599 67.2984L66.3499 62.0065C67.2788 61.7576 68.2537 61.8879 69.0946 62.3735C69.9355 62.8591 70.5357 63.6381 70.7845 64.567C71.301 66.4956 70.1526 68.4852 68.2243 69.0018Z" fill="#865004"/>
</svg>
