<svg width="80" height="80" viewBox="0 0 80 80" fill="none" xmlns="http://www.w3.org/2000/svg">
<path d="M54.9482 56.3802C53.7175 56.0506 52.4357 56.2178 51.3384 56.8516L40.2192 63.2709C39.8273 61.4562 38.4629 59.9147 36.5514 59.3944L23.4762 55.8355C21.6073 55.3272 19.6057 55.8352 17.6873 57.3042L14.6275 59.6475L14.6231 59.6312C14.4834 59.1102 14.1487 58.6744 13.6803 58.4039C13.2117 58.1334 12.6667 58.0616 12.1459 58.2009L9.03512 59.0344C8.51403 59.1741 8.07809 59.5089 7.80762 59.9773C7.53715 60.4458 7.46512 60.9908 7.60465 61.5117L12.115 78.3445C12.357 79.247 13.1764 79.8439 14.0693 79.8439C14.2422 79.8439 14.4178 79.8214 14.5925 79.7748L17.7029 78.9412C18.2242 78.8017 18.6601 78.467 18.9306 77.9984C19.2011 77.53 19.2731 76.985 19.1336 76.4641L19.0254 76.0605C20.7226 74.8441 22.2484 74.5241 24.1511 74.9605L31.6406 76.6773C32.3179 76.8327 32.9784 76.9102 33.6206 76.9102C34.9559 76.9102 36.2106 76.5748 37.3684 75.9064L56.097 65.0936C58.369 63.7819 59.1504 60.8659 57.8387 58.5933C57.2053 57.4958 56.1789 56.7098 54.9482 56.3802ZM14.4062 77.2366L10.1429 61.3258L12.332 60.7392L16.5953 76.65L14.4062 77.2366ZM54.8472 62.9287L36.1186 73.7412C34.9526 74.4145 33.6704 74.5775 32.1992 74.2405L24.7098 72.5236C22.3878 71.9914 20.3689 72.2962 18.3437 73.5161L15.3276 62.2603L19.2076 59.2891C20.5015 58.2978 21.7162 57.9478 22.82 58.2477L35.8951 61.8064C36.5678 61.9895 37.1314 62.4283 37.4825 63.0419C37.8334 63.6556 37.9261 64.3639 37.7429 65.0366C37.3618 66.4362 35.9136 67.2642 34.5128 66.8845L27.5284 64.9836C26.8629 64.8027 26.1754 65.1952 25.9942 65.8614C25.8128 66.5275 26.2057 67.2144 26.872 67.3956L33.8564 69.2966C34.3057 69.4189 34.7576 69.4772 35.2025 69.4772C37.2445 69.4772 39.1326 68.2445 39.9348 66.3216L52.5887 59.0161C53.1075 58.7164 53.7161 58.6377 54.3014 58.7945C54.8867 58.9516 55.3742 59.3237 55.6737 59.8428C56.2962 60.9219 55.9254 62.3061 54.8472 62.9287ZM72.3968 18.4883L67.8865 1.65546C67.5976 0.578277 66.4859 -0.062817 65.409 0.225152L62.2981 1.05875C61.7772 1.19843 61.3412 1.53328 61.0709 2.00171C60.8004 2.47031 60.7284 3.01515 60.8679 3.53609L60.9761 3.93968C59.2789 5.15593 57.7528 5.47593 55.8503 5.03968L48.3609 3.32281C46.2748 2.84437 44.3473 3.10375 42.6329 4.0939L23.9043 14.9064C21.6323 16.2183 20.8509 19.1342 22.1626 21.4069C22.7962 22.5044 23.8226 23.2903 25.0532 23.62C25.4657 23.7306 25.8837 23.7853 26.2989 23.7853C27.1223 23.7853 27.9336 23.5702 28.6631 23.1491L39.7825 16.7297C40.1745 18.5441 41.5387 20.0856 43.4501 20.6061L56.5251 24.1647C56.9961 24.2928 57.4748 24.3566 57.9592 24.3566C59.3968 24.3566 60.879 23.7953 62.3142 22.6962L65.374 20.353L65.3784 20.3692C65.5181 20.8903 65.8528 21.3261 66.3212 21.5966C66.6336 21.7769 66.98 21.8691 67.3304 21.8691C67.5057 21.8691 67.682 21.8461 67.8556 21.7995L70.9659 20.9661C71.4873 20.8266 71.9232 20.4917 72.1939 20.0231C72.4643 19.5544 72.5365 19.0094 72.3968 18.4883ZM60.7939 20.7112C59.4997 21.7025 58.2843 22.0519 57.1815 21.7525L44.1065 18.1939C42.7065 17.8128 41.8775 16.3636 42.2586 14.9637C42.6397 13.5639 44.0873 12.7352 45.4887 13.1158L52.4731 15.0167C53.1392 15.1981 53.8261 14.8052 54.0073 14.1389C54.1887 13.4728 53.7957 12.7859 53.1295 12.6047L46.1451 10.7037C43.6315 10.0192 41.0378 11.3369 40.0625 13.6812L27.4129 20.9841C26.8939 21.2837 26.2857 21.3623 25.7001 21.2055C25.1148 21.0486 24.6273 20.6762 24.3278 20.1573C23.7053 19.0786 24.0761 17.6944 25.1543 17.0719L43.8829 6.25906C45.049 5.58578 46.3307 5.42234 47.8023 5.76L55.2915 7.47687C57.614 8.00921 59.6326 7.70437 61.6578 6.48437L64.6737 17.7402L60.7939 20.7112ZM67.6695 19.2609L63.4062 3.35L65.5951 2.76343L69.8586 18.6742L67.6695 19.2609ZM23.1825 35.9436C22.4922 35.9436 21.9325 36.5033 21.9325 37.1936V42.8067C21.9325 43.497 22.4922 44.0567 23.1825 44.0567H25.0081C25.3551 45.3447 25.865 46.575 26.5317 47.7323L25.24 49.0242C24.7518 49.5123 24.7518 50.3036 25.24 50.7917L29.2089 54.7608C29.4434 54.9953 29.7612 55.127 30.0928 55.127C30.4243 55.127 30.7422 54.9953 30.9767 54.7609L32.2686 53.4689C33.4262 54.1359 34.6565 54.6458 35.944 54.9925V56.8183C35.944 57.5086 36.5037 58.0683 37.194 58.0683H42.8072C43.4975 58.0683 44.0572 57.5086 44.0572 56.8183V54.9925C45.3451 54.6456 46.5753 54.1358 47.7326 53.4689L49.0243 54.7608C49.5126 55.2487 50.304 55.2491 50.792 54.7608L54.7611 50.7919C55.2493 50.3037 55.2493 49.5123 54.7612 49.0242L53.4692 47.732C54.1362 46.5744 54.6461 45.3442 54.9928 44.0567H56.8187C57.509 44.0567 58.0687 43.497 58.0687 42.8067V37.1936C58.0687 36.5033 57.509 35.9436 56.8187 35.9436H54.9928C54.6457 34.6556 54.1361 33.4256 53.4692 32.2683L54.7612 30.9764C55.2493 30.4883 55.2493 29.6969 54.7612 29.2087L50.7923 25.2395C50.5579 25.005 50.24 24.8733 49.9084 24.8733C49.5768 24.8733 49.259 25.005 49.0245 25.2395L47.7325 26.5316C46.5747 25.8647 45.3448 25.3548 44.0572 25.008V23.182C44.0572 22.4917 43.4975 21.932 42.8072 21.932H37.194C36.5037 21.932 35.944 22.4917 35.944 23.182V25.008C34.6561 25.3548 33.4261 25.8645 32.2686 26.5314L30.9767 25.2395C30.7423 25.005 30.4243 24.8733 30.0928 24.8733C29.7612 24.8733 29.4434 25.005 29.2089 25.2394L25.2398 29.2084C24.7517 29.6967 24.7517 30.488 25.2398 30.9762L26.5318 32.2681C25.8648 33.4259 25.355 34.6561 25.0081 35.9436H23.1825ZM27.2245 37.438C27.5575 35.7678 28.2072 34.2 29.1557 32.7784C29.4865 32.2827 29.4214 31.6223 29 31.2006L27.8914 30.0922L30.0928 27.8908L31.2012 28.9994C31.6228 29.4209 32.2831 29.4861 32.7792 29.1553C34.2 28.207 35.7676 27.5572 37.4386 27.2241C38.0231 27.1075 38.4442 26.5944 38.4442 25.9981V24.4319H41.5573V25.9981C41.5573 26.5942 41.9782 27.1075 42.5629 27.2241C44.2331 27.5572 45.8009 28.207 47.2223 29.1555C47.7182 29.4866 48.3787 29.4209 48.8001 28.9995L49.9087 27.8909L52.11 30.0923L51.0014 31.2008C50.58 31.6223 50.5148 32.2828 50.8456 32.7786C51.7937 34.1995 52.4436 35.767 52.7767 37.438C52.8932 38.0225 53.4064 38.4436 54.0026 38.4436H55.569V41.5567H54.0026C53.4065 41.5567 52.8932 41.9776 52.7767 42.5625C52.4439 44.2325 51.7942 45.8002 50.8456 47.2217C50.5148 47.7175 50.58 48.3778 51.0014 48.7994L52.11 49.9081L49.9086 52.1094L48.8001 51.0008C48.3786 50.5795 47.7182 50.5141 47.2222 50.8451C45.8015 51.7934 44.234 52.4433 42.5629 52.7762C41.9784 52.8928 41.5573 53.4059 41.5573 54.0022V55.5684H38.4442V54.0022C38.4442 53.4061 38.0232 52.8928 37.4384 52.7762C35.7682 52.4434 34.2006 51.7937 32.779 50.8451C32.2831 50.5142 31.6229 50.5797 31.2012 51.0009L30.0928 52.1095L27.8915 49.9081L29 48.7995C29.4214 48.3781 29.4865 47.7175 29.1557 47.2217C28.2076 45.8011 27.5576 44.2334 27.2245 42.5623C27.1079 41.9778 26.5948 41.5567 25.9986 41.5567H24.4325V38.4436H25.9986C26.5948 38.4436 27.1079 38.0227 27.2245 37.438ZM40.0007 50.5798C45.8345 50.5798 50.5806 45.8337 50.5806 40.0002C50.5806 34.1664 45.8345 29.4203 40.0007 29.4203C34.167 29.4203 29.4209 34.1664 29.4209 40.0002C29.4209 45.8337 34.167 50.5798 40.0007 50.5798ZM40.0007 31.9203C44.4561 31.9203 48.0806 35.5448 48.0806 40.0002C48.0806 44.4553 44.4561 48.0798 40.0007 48.0798C35.5454 48.0798 31.9209 44.4553 31.9209 40.0002C31.9209 35.5448 35.5454 31.9203 40.0007 31.9203ZM35.2709 42.7309C34.9256 42.1331 35.1306 41.3686 35.7284 41.0234L38.7507 39.2786V34.0233C38.7507 33.333 39.3104 32.7733 40.0007 32.7733C40.6911 32.7733 41.2507 33.333 41.2507 34.0233V38.4337C41.4823 38.5375 41.6845 38.7125 41.8211 38.9492C42.1664 39.547 41.9614 40.3116 41.3636 40.6567L41.2507 40.7219V40.8522C41.2507 41.5425 40.6911 42.1022 40.0007 42.1022C39.7276 42.1022 39.475 42.0145 39.2692 41.8658L36.9784 43.1884C36.7815 43.3022 36.5665 43.3561 36.3547 43.3561C35.9225 43.3561 35.5025 43.132 35.2709 42.7309Z" fill="#865004"/>
</svg>
