<svg width="32" height="32" viewBox="0 0 32 32" fill="none" xmlns="http://www.w3.org/2000/svg">
<g clip-path="url(#clip0_150_22801)">
<path d="M16 0.375C7.37056 0.375 0.375 7.37056 0.375 16C0.375 24.6294 7.37056 31.625 16 31.625C24.6294 31.625 31.625 24.6294 31.625 16C31.625 7.37056 24.6294 0.375 16 0.375ZM16.2019 25.4517C14.4523 25.4517 12.8375 24.9842 11.4244 24.2494L5.90675 25.986L7.7235 20.7761C6.84881 19.3066 6.3105 17.5699 6.3105 15.7666C6.3105 10.3563 10.7515 6.01475 16.2019 6.01475C21.6523 5.94794 26.0933 10.2898 26.0933 15.6998C26.0933 21.1099 21.6523 25.4517 16.2019 25.4517Z" fill="#F1C40F"/>
<path d="M16.2022 7.48438C11.6266 7.48438 7.8584 11.158 7.8584 15.7C7.85808 17.4362 8.4252 19.125 9.4734 20.5091L8.46402 23.5816L11.6939 22.5797C13.0566 23.4609 14.6468 23.9252 16.2695 23.9156C20.8451 23.9156 24.6133 20.2419 24.6133 15.7C24.5458 11.158 20.7778 7.48438 16.2022 7.48438ZM21.145 18.5556L21.044 19.0377C20.9868 19.3082 20.8767 19.5647 20.72 19.7925C20.5633 20.0204 20.3631 20.2149 20.1309 20.3651C19.5326 20.7408 18.7643 20.9287 17.782 20.6532C14.7403 19.7953 13.0211 17.7917 12.0954 16.5394C11.1696 15.2871 10.8108 14.0347 11.0438 13.0144C11.2012 12.3319 11.705 11.7996 12.0198 11.5304C12.176 11.3988 12.3764 11.3317 12.5803 11.3429L13.229 11.3804C13.2917 11.3843 13.3521 11.4057 13.4033 11.4423C13.4546 11.4788 13.4945 11.5289 13.5186 11.587L14.4632 13.791C14.4873 13.849 14.4947 13.9125 14.4847 13.9744C14.4747 14.0363 14.4476 14.0943 14.4065 14.1417L13.5815 15.0871C13.5493 15.1246 13.529 15.1709 13.5234 15.2201C13.5179 15.2692 13.5272 15.3189 13.5503 15.3626C14.6398 17.4414 16.6172 18.268 17.2091 18.4746C17.2579 18.492 17.311 18.4935 17.3608 18.4789C17.4105 18.4643 17.4544 18.4344 17.4861 18.3934L18.3486 17.2789C18.3958 17.2187 18.4618 17.1762 18.536 17.158C18.6102 17.1399 18.6884 17.1472 18.758 17.1789L20.9558 18.1807C21.0247 18.213 21.0808 18.2675 21.1151 18.3355C21.1494 18.4035 21.1599 18.481 21.145 18.5556Z" fill="#F1C40F"/>
</g>
<defs>
<clipPath id="clip0_150_22801">
<rect width="32" height="32" fill="white"/>
</clipPath>
</defs>
</svg>
