<svg width="180" height="60" viewBox="0 0 180 60" fill="none" xmlns="http://www.w3.org/2000/svg">
<path d="M120.869 0V10.7678H117.908V9.19782C112.47 11.0092 108.543 16.1416 108.543 22.1795C108.543 22.9845 108.623 23.7897 108.744 24.5545L110.315 23.6488L111.785 26.2049L109.59 27.4728L103.93 30.7333L102.48 31.5988L101.01 29.0427L102.903 27.9558C102.359 26.1243 102.057 24.1921 102.057 22.1996C102.057 12.5389 108.845 4.48818 117.908 2.49565V0H120.869Z" fill="#E84C3D"/>
<path d="M123.568 0V10.7678H126.529V9.19782C131.967 11.0092 135.895 16.1416 135.895 22.1795C135.895 22.9845 135.814 23.7897 135.693 24.5545L134.122 23.6488L132.652 26.2049L134.847 27.4728L140.507 30.7333L141.957 31.5988L143.428 29.0427L141.534 27.9558C142.078 26.1243 142.38 24.1921 142.38 22.1996C142.38 12.5389 135.593 4.48818 126.529 2.49565V0H123.568Z" fill="#F1C40F"/>
<path d="M140.54 34.1146L131.208 28.7308L129.727 31.293L131.088 32.078C126.799 35.8784 120.387 36.7112 115.154 33.6922C114.457 33.2896 113.799 32.8174 113.197 32.3304L114.767 31.4237L113.287 28.8732L111.091 30.1391L105.435 33.4067L103.96 34.229L105.44 36.7795L107.329 35.6844C108.644 37.0708 110.167 38.2983 111.894 39.2945C120.267 44.125 130.638 42.2763 136.896 35.429L139.059 36.6769L140.54 34.1146Z" fill="#3598DB"/>
<path d="M0 52.6049C0 50.0407 1.51053 48.2457 3.79057 48.2457C5.56711 48.2457 6.90663 49.2999 7.12514 50.8764H5.83311C5.63361 50.1072 4.9591 49.4044 3.81907 49.4044C2.30854 49.4044 1.30153 50.6485 1.30153 52.5574C1.30153 54.4664 2.28954 55.777 3.81907 55.777C4.82609 55.777 5.59561 55.2262 5.83311 54.3049H7.12514C6.90663 55.796 5.68111 56.9356 3.81907 56.9356C1.45353 56.9356 0.00950019 55.1122 0.00950019 52.5954L0 52.6049Z" fill="white"/>
<path d="M8.34082 48.3501H15.181V49.5562H12.4164V56.7646H11.1244V49.5562H8.34082V48.3501Z" fill="white"/>
<path d="M17.0525 48.3502H18.297V49.6893H18.449C18.734 49.2524 19.2375 48.2457 20.881 48.2457C23.0091 48.2457 24.4721 49.9362 24.4721 52.5859C24.4721 55.2357 22.9996 56.9451 20.9 56.9451C19.2755 56.9451 18.734 55.9384 18.449 55.4731H18.335V59.9178H17.043V48.3502H17.0525ZM20.7385 55.777C22.3631 55.777 23.1896 54.3524 23.1896 52.5574C23.1896 50.7625 22.3821 49.4044 20.7385 49.4044C19.095 49.4044 18.3255 50.677 18.3255 52.5574C18.3255 54.4379 19.1805 55.777 20.7385 55.777Z" fill="white"/>
<path d="M26.0498 52.6049C26.0498 49.9742 27.5888 48.2457 29.8594 48.2457C32.1299 48.2457 33.669 49.9742 33.669 52.6049C33.669 55.2357 32.1299 56.9451 29.8594 56.9451C27.5888 56.9451 26.0498 55.2167 26.0498 52.6049ZM32.3864 52.6049C32.3864 50.9144 31.5979 49.4044 29.8689 49.4044C28.1398 49.4044 27.3513 50.9144 27.3513 52.6049C27.3513 54.2954 28.1398 55.7865 29.8689 55.7865C31.5979 55.7865 32.3864 54.2954 32.3864 52.6049Z" fill="white"/>
<path d="M40.9834 48.3501H42.4749V56.7646H41.1829V50.259L37.1453 56.7646H35.6348V48.3501H36.9268V54.8557L40.9834 48.3501Z" fill="white"/>
<path d="M43.6914 48.3501H50.5315V49.5562H47.767V56.7646H46.475V49.5562H43.6914V48.3501Z" fill="white"/>
<path d="M51.5674 52.6239C51.5674 50.0407 53.0779 48.2457 55.358 48.2457C57.1155 48.2457 58.9775 49.3189 58.9775 52.453V53.0038H52.8689C52.9259 54.8083 53.9804 55.7865 55.491 55.7865C56.5075 55.7865 57.2675 55.3496 57.5905 54.4759L58.8445 54.8273C58.4455 56.0999 57.201 56.9546 55.491 56.9546C53.0589 56.9546 51.5674 55.2262 51.5674 52.6429V52.6239ZM57.657 51.8831C57.657 50.4586 56.7545 49.4044 55.358 49.4044C53.8759 49.4044 52.9544 50.5725 52.8689 51.8831H57.6665H57.657Z" fill="white"/>
<path d="M60.1934 55.5585H60.4974C61.5044 55.5585 61.7894 54.9032 61.9034 52.073L62.0554 48.3501H67.67V56.7646H66.378V49.5562H63.2904L63.1574 52.5573C63.0339 55.321 62.5019 56.7646 60.6399 56.7646H60.2029V55.5585H60.1934Z" fill="white"/>
<path d="M73.55 51.3987C75.526 51.3987 76.5995 52.5194 76.5995 54.0484C76.5995 55.5775 75.526 56.7646 73.55 56.7646H70.0254V48.3501H71.3174V51.3987H73.55ZM71.3174 55.5585H73.55C74.576 55.5585 75.3075 54.9601 75.3075 54.1149C75.3075 53.2696 74.576 52.6048 73.55 52.6048H71.3174V55.5585Z" fill="white"/>
<path d="M79.8584 51.9685H83.896V48.3501H85.188V56.7646H83.896V53.1747H79.8584V56.7646H78.5664V48.3501H79.8584V51.9685Z" fill="white"/>
<path d="M87.1357 54.3714C87.1357 52.4434 88.8363 52.1015 90.4038 51.8926C91.9333 51.6932 92.5698 51.7501 92.5698 51.1233V51.0758C92.5698 49.9932 91.9808 49.3663 90.7933 49.3663C89.6058 49.3663 88.8838 50.0217 88.5988 50.639L87.3732 50.2021C88.0288 48.6731 89.4728 48.2267 90.7458 48.2267C91.8193 48.2267 93.8619 48.5306 93.8619 51.2088V56.7552H92.5698V55.6155H92.5033C92.2373 56.1663 91.4773 56.9546 90.0048 56.9546C88.4088 56.9546 87.1357 56.0144 87.1357 54.3714ZM92.5698 53.7161V52.5289C92.3513 52.7948 90.8788 52.9468 90.3373 53.0133C89.3303 53.1462 88.4278 53.4501 88.4278 54.4378C88.4278 55.3401 89.1783 55.7959 90.2043 55.7959C91.7433 55.7959 92.5698 54.7702 92.5698 53.7161Z" fill="white"/>
<path d="M101.291 53.3456H99.0303L97.0828 56.7646H95.6768L97.7288 53.1747C96.7123 52.8328 96.1328 52.0065 96.1328 50.8479C96.1328 49.2998 97.2348 48.3501 99.0493 48.3501H102.517V56.7646H101.291V53.3456ZM101.291 49.5372H99.0588C98.0518 49.5372 97.4343 50.0311 97.4343 50.8479C97.4343 51.6646 97.9853 52.1395 98.9068 52.1395H101.291V49.5277V49.5372Z" fill="white"/>
<path d="M109.205 48.3501H110.497V52.0065H111.352L114.373 48.3501H116.035L112.634 52.4054L116.073 56.7646H114.411L111.646 53.2127H110.487V56.7646H109.195V48.3501H109.205Z" fill="white"/>
<path d="M116.738 52.6049C116.738 49.9742 118.268 48.2457 120.548 48.2457C122.828 48.2457 124.357 49.9742 124.357 52.6049C124.357 55.2357 122.818 56.9451 120.548 56.9451C118.277 56.9451 116.738 55.2167 116.738 52.6049ZM123.075 52.6049C123.075 50.9144 122.286 49.4044 120.557 49.4044C118.828 49.4044 118.04 50.9144 118.04 52.6049C118.04 54.2954 118.828 55.7865 120.557 55.7865C122.286 55.7865 123.075 54.2954 123.075 52.6049Z" fill="white"/>
<path d="M133.867 48.3501H135.53V56.7646H134.238V50.3255L131.454 56.7646H130.4L127.616 50.2115V56.7646H126.324V48.3501H128.034L130.932 55.0076L133.867 48.3501Z" fill="white"/>
<path d="M137.876 48.3501H144.498V56.7646H143.206V49.5562H139.168V56.7646H137.876V48.3501Z" fill="white"/>
<path d="M146.464 54.3714C146.464 52.4434 148.164 52.1015 149.732 51.8926C151.261 51.6932 151.898 51.7501 151.898 51.1233V51.0758C151.898 49.9932 151.309 49.3663 150.121 49.3663C148.934 49.3663 148.212 50.0217 147.927 50.639L146.701 50.2021C147.357 48.6731 148.801 48.2267 150.074 48.2267C151.147 48.2267 153.19 48.5306 153.19 51.2088V56.7552H151.898V55.6155H151.831C151.565 56.1663 150.805 56.9546 149.333 56.9546C147.737 56.9546 146.464 56.0144 146.464 54.3714ZM151.898 53.7161V52.5289C151.679 52.7948 150.207 52.9468 149.665 53.0133C148.658 53.1462 147.756 53.4501 147.756 54.4378C147.756 55.3401 148.506 55.7959 149.532 55.7959C151.071 55.7959 151.898 54.7702 151.898 53.7161Z" fill="white"/>
<path d="M156.839 51.9685H160.876V48.3501H162.169V56.7646H160.876V53.1747H156.839V56.7646H155.547V48.3501H156.839V51.9685Z" fill="white"/>
<path d="M169.863 48.3501H171.355V56.7646H170.063V50.259L166.025 56.7646H164.515V48.3501H165.807V54.8557L169.863 48.3501Z" fill="white"/>
<path d="M178.775 53.3456H176.514L174.566 56.7646H173.16L175.212 53.1747C174.196 52.8328 173.616 52.0065 173.616 50.8479C173.616 49.2998 174.718 48.3501 176.533 48.3501H180V56.7646H178.775V53.3456ZM178.775 49.5372H176.542C175.535 49.5372 174.918 50.0311 174.918 50.8479C174.918 51.6646 175.469 52.1395 176.39 52.1395H178.775V49.5277V49.5372Z" fill="white"/>
<path d="M0 32.7747L1.05452 32.6798C5.1396 32.3379 6.66913 28.8144 7.03014 18.4435L7.64765 1.89941H32.8991V39.0904H25.2515V8.21504H14.9533L14.3738 21.1597C13.7943 33.6295 10.9917 39.0999 2.04254 39.0999H0.00950017V32.7842L0 32.7747Z" fill="white"/>
<path d="M39.3591 1.90894H64.4206V8.39551H47.2158V17.2564H63.1286V23.743H47.2158V32.6228H64.4871V39.1094H39.3496V1.90894H39.3591Z" fill="white"/>
<path d="M70.6904 1.90894H85.3682C93.8139 1.90894 98.697 7.12289 98.697 14.5117C98.697 21.9005 93.7189 27.0385 85.1687 27.0385H78.5566V39.0999H70.6904V1.90894ZM83.8957 20.7418C88.3988 20.7418 90.6028 18.1966 90.6028 14.5117C90.6028 10.8268 88.4083 8.33853 83.8672 8.33853H78.5661V20.7418H83.9052H83.8957Z" fill="white"/>
<path d="M147.472 1.89941H155.338V17.2469H171.308V1.89941H179.155V39.0904H171.308V23.7334H155.338V39.0904H147.472V1.89941Z" fill="white"/>
</svg>
