<svg width="741" height="78" viewBox="0 0 741 78" fill="none" xmlns="http://www.w3.org/2000/svg">
  <mask id="mask0_115_775" style="mask-type:alpha" maskUnits="userSpaceOnUse" x="0" y="0" width="741" height="78">
    <rect width="741" height="77.6562" fill="#D9D9D9" />
  </mask>
  <g mask="url(#mask0_115_775)">
    <rect x="-2.90234" y="-26.1827" width="21.047" height="142.249" transform="rotate(-15.8566 -2.90234 -26.1827)" fill="#FFB800" />
    <rect x="40.6426" y="-26.1827" width="21.047" height="142.249" transform="rotate(-15.8566 40.6426 -26.1827)" fill="#FFB800" />
    <rect x="84.1875" y="-26.1827" width="21.047" height="142.249" transform="rotate(-15.8566 84.1875 -26.1827)" fill="#FFB800" />
    <rect x="127.734" y="-26.1827" width="21.047" height="142.249" transform="rotate(-15.8566 127.734 -26.1827)" fill="#FFB800" />
    <rect x="171.279" y="-26.1827" width="21.047" height="142.249" transform="rotate(-15.8566 171.279 -26.1827)" fill="#FFB800" />
    <rect x="214.824" y="-26.1827" width="21.047" height="142.249" transform="rotate(-15.8566 214.824 -26.1827)" fill="#FFB800" />
    <rect x="258.371" y="-26.1827" width="21.047" height="142.249" transform="rotate(-15.8566 258.371 -26.1827)" fill="#FFB800" />
    <rect x="301.916" y="-26.1827" width="21.047" height="142.249" transform="rotate(-15.8566 301.916 -26.1827)" fill="#FFB800" />
    <rect x="345.461" y="-26.1827" width="21.047" height="142.249" transform="rotate(-15.8566 345.461 -26.1827)" fill="#FFB800" />
    <rect x="389.008" y="-26.1827" width="21.047" height="142.249" transform="rotate(-15.8566 389.008 -26.1827)" fill="#FFB800" />
    <rect x="432.553" y="-26.1827" width="21.047" height="142.249" transform="rotate(-15.8566 432.553 -26.1827)" fill="#FFB800" />
    <rect x="476.098" y="-26.1827" width="21.047" height="142.249" transform="rotate(-15.8566 476.098 -26.1827)" fill="#FFB800" />
    <rect x="519.643" y="-26.1827" width="21.047" height="142.249" transform="rotate(-15.8566 519.643 -26.1827)" fill="#FFB800" />
    <rect x="563.189" y="-26.1827" width="21.047" height="142.249" transform="rotate(-15.8566 563.189 -26.1827)" fill="#FFB800" />
    <rect x="606.734" y="-26.1827" width="21.047" height="142.249" transform="rotate(-15.8566 606.734 -26.1827)" fill="#FFB800" />
    <rect x="650.279" y="-26.1827" width="21.047" height="142.249" transform="rotate(-15.8566 650.279 -26.1827)" fill="#FFB800" />
  </g>
</svg>